<svg width="78" height="90" viewBox="0 0 78 90" fill="none" xmlns="http://www.w3.org/2000/svg">
<path d="M40.8909 90H19.8476C18.7619 89.9998 17.6893 89.7633 16.7049 89.3069C15.7204 88.8504 14.8478 88.1851 14.148 87.3575C13.4483 86.5299 12.9383 85.5599 12.6537 84.5154C12.3692 83.4708 12.3168 82.3769 12.5005 81.3101L15.4953 63.9151C15.5358 63.6722 15.5975 63.4333 15.6798 63.2011C15.6939 63.0605 15.7416 62.0328 14.4254 59.4516C12.6741 56.0137 9.37538 51.4465 4.62267 45.8915C2.0358 42.8626 0.517752 39.4268 0.111926 35.6676C-0.233134 32.484 0.220436 29.0493 1.46178 25.46C3.66887 19.0775 7.95282 13.344 11.1582 9.66599C13.9429 6.46664 17.5243 4.05551 21.5415 2.67553C26.8009 0.871123 34.8675 -0.959247 43.4289 0.572553C53.7113 2.41158 62.0687 8.55608 68.2689 18.8319C69.477 20.8372 70.1147 23.1326 70.1136 25.4719V35.3615C70.1121 36.7638 70.5308 38.1345 71.3159 39.2981L75.8331 46.0051C76.3874 46.8285 76.7654 47.757 76.9433 48.7327C77.1213 49.7083 77.0953 50.71 76.8672 51.6752C76.6391 52.6404 76.2136 53.5483 75.6174 54.3421C75.0213 55.1359 74.2673 55.7985 73.4025 56.2885L72.5496 56.7731C71.8105 57.1931 71.1958 57.8005 70.768 58.5336C70.3402 59.2667 70.1144 60.0996 70.1136 60.9477V69.4462C70.1136 69.6214 70.1223 69.8021 70.1385 69.9871C70.2373 71.0472 70.2156 73.7495 67.8978 75.9077C65.1851 78.4314 60.3781 79.153 53.6082 78.0604C53.0109 77.9622 52.3993 77.9947 51.8159 78.1556C51.2324 78.3165 50.691 78.6019 50.2292 78.9921C49.7674 79.3823 49.3962 79.868 49.1414 80.4154C48.8866 80.9629 48.7542 81.559 48.7535 82.1625C48.7498 84.2402 47.9201 86.2317 46.4464 87.7007C44.9726 89.1698 42.9749 89.9966 40.8909 90ZM36.8435 3.43819C31.4354 3.43819 26.4635 4.64329 22.6721 5.94467C19.2324 7.12655 16.1658 9.19099 13.7809 11.9302C10.7762 15.3832 6.77007 20.7283 4.7442 26.5883C2.43946 33.2542 3.288 38.9941 7.26487 43.6458C16.1138 53.9962 20.1536 61.1598 18.9503 64.3618C18.9352 64.4069 18.9243 64.4533 18.9177 64.5003L15.9228 81.8953C15.8245 82.4653 15.8523 83.0498 16.0042 83.6079C16.1561 84.166 16.4285 84.6844 16.8024 85.1266C17.1762 85.5688 17.6424 85.9243 18.1684 86.1681C18.6944 86.412 19.2675 86.5383 19.8476 86.5383H40.8909C42.056 86.5369 43.1729 86.0748 43.9968 85.2535C44.8206 84.4322 45.2841 83.3186 45.2855 82.1571C45.2862 81.0521 45.5278 79.9606 45.9936 78.9579C46.4594 77.9553 47.1383 77.0656 47.9832 76.3505C48.8281 75.6353 49.8188 75.1119 50.8868 74.8163C51.9547 74.5207 53.0743 74.4601 54.1681 74.6387C61.2125 75.7768 64.2356 74.5782 65.5323 73.372C66.7259 72.2588 66.7368 70.8525 66.6858 70.2997C66.6597 70.0141 66.6456 69.7264 66.6456 69.4451V60.9467C66.6467 59.4867 67.035 58.053 67.7711 56.791C68.5073 55.5289 69.5651 54.4834 70.8373 53.7604L71.6913 53.2768C72.1407 53.0219 72.5325 52.6774 72.8423 52.2646C73.1521 51.8519 73.3732 51.38 73.4917 50.8782C73.6102 50.3765 73.6237 49.8558 73.5312 49.3486C73.4388 48.8415 73.2424 48.3588 72.9544 47.9307L68.4371 41.2237C67.2675 39.4899 66.6437 37.4476 66.6456 35.3582V25.4675C66.6453 23.7569 66.1779 22.0785 65.2936 20.6125C57.176 7.15842 46.3446 3.43819 36.8435 3.43819Z" fill="white"/>
<path d="M30.2558 29.7081H30.2352C28.5284 29.6887 27.2903 27.9026 27.2903 25.4611C27.2903 23.0195 28.5284 21.2335 30.2352 21.2151H30.2558C30.6591 21.2152 31.0498 21.3554 31.3607 21.6114C31.6717 21.8674 31.8835 22.2234 31.9599 22.6181C32.0363 23.0129 31.9724 23.4219 31.7793 23.7748C31.5861 24.1278 31.2758 24.4027 30.9015 24.5524C30.7163 25.1445 30.7163 25.7787 30.9015 26.3708C31.2758 26.5205 31.5861 26.7954 31.7793 27.1484C31.9724 27.5013 32.0363 27.9103 31.9599 28.3051C31.8835 28.6999 31.6717 29.0558 31.3607 29.3118C31.0498 29.5679 30.6591 29.708 30.2558 29.7081Z" fill="white"/>
<path d="M29.6404 44.2245H29.6208C27.914 44.2061 26.6748 42.4201 26.6748 39.9785C26.6748 37.5369 27.914 35.7509 29.6208 35.7315H29.6404C30.0441 35.7303 30.4356 35.8696 30.7475 36.1252C31.0595 36.3808 31.2723 36.7367 31.3493 37.1319C31.4264 37.527 31.363 37.9365 31.1699 38.29C30.9768 38.6435 30.6662 38.9189 30.2914 39.0687C30.1025 39.6599 30.1002 40.2947 30.2849 40.8872C30.6597 41.0371 30.9703 41.3124 31.1634 41.6659C31.3565 42.0194 31.4199 42.429 31.3428 42.8241C31.2658 43.2192 31.0529 43.5752 30.741 43.8308C30.4291 44.0864 30.0376 44.2256 29.6339 44.2245H29.6404Z" fill="white"/>
<path d="M23.5854 36.398H23.5648C21.858 36.3785 20.6199 34.5935 20.6199 32.1509C20.6199 29.7082 21.858 27.9244 23.5648 27.9049C23.9699 27.9002 24.3639 28.0369 24.6785 28.2912C24.9932 28.5456 25.2087 28.9017 25.2878 29.2978C25.3669 29.6939 25.3045 30.1051 25.1115 30.4602C24.9186 30.8153 24.6071 31.0919 24.2311 31.2422C24.0459 31.8343 24.0459 32.4686 24.2311 33.0607C24.6054 33.2103 24.9157 33.4852 25.1089 33.8382C25.302 34.1911 25.3659 34.6001 25.2895 34.9949C25.2131 35.3897 25.0013 35.7456 24.6903 36.0017C24.3794 36.2577 23.9887 36.3978 23.5854 36.398Z" fill="white"/>
<path d="M43.1185 29.7081C42.7152 29.708 42.3246 29.5679 42.0136 29.3118C41.7027 29.0558 41.4909 28.6999 41.4145 28.3051C41.3381 27.9103 41.402 27.5013 41.5951 27.1484C41.7882 26.7954 42.0986 26.5205 42.4729 26.3708C42.6581 25.7787 42.6581 25.1445 42.4729 24.5524C42.0986 24.4027 41.7882 24.1278 41.5951 23.7748C41.402 23.4219 41.3381 23.0129 41.4145 22.6181C41.4909 22.2234 41.7027 21.8674 42.0136 21.6114C42.3246 21.3554 42.7152 21.2152 43.1185 21.2151H43.1391C44.846 21.2335 46.0841 23.0195 46.0841 25.4611C46.0841 27.9026 44.846 29.6887 43.1391 29.7081H43.1185Z" fill="white"/>
<path d="M43.7335 44.2246C43.3303 44.2242 42.9398 44.0839 42.629 43.8278C42.3183 43.5717 42.1066 43.2157 42.0304 42.821C41.9542 42.4263 42.0181 42.0175 42.2112 41.6646C42.4044 41.3118 42.7147 41.037 43.0889 40.8873C43.2757 40.2955 43.2757 39.6607 43.0889 39.0689C42.7129 38.9186 42.4014 38.6419 42.2084 38.2868C42.0155 37.9317 41.9531 37.5205 42.0322 37.1244C42.1113 36.7283 42.3268 36.3723 42.6414 36.1179C42.9561 35.8635 43.3501 35.7269 43.7552 35.7316C45.462 35.751 46.7012 37.5371 46.7012 39.9786C46.7012 42.4202 45.462 44.2062 43.7552 44.2246H43.7335Z" fill="white"/>
<path d="M49.7885 36.3976C49.3848 36.3987 48.9933 36.2595 48.6813 36.0039C48.3694 35.7483 48.1566 35.3924 48.0795 34.9972C48.0025 34.6021 48.0659 34.1926 48.259 33.8391C48.4521 33.4856 48.7627 33.2102 49.1375 33.0603C49.3226 32.4682 49.3226 31.834 49.1375 31.2419C48.7617 31.091 48.4507 30.8138 48.2583 30.4584C48.0659 30.103 48.0042 29.6917 48.0839 29.2958C48.1636 28.8998 48.3797 28.5441 48.6948 28.2902C49.0099 28.0363 49.4041 27.9003 49.8091 27.9057C51.516 27.9251 52.7541 29.7101 52.7541 32.1517C52.7541 34.5932 51.516 36.3792 49.8091 36.3987L49.7885 36.3976Z" fill="white"/>
<path d="M22.9183 50.2806C20.677 50.278 18.5282 49.3892 16.9433 47.8092C15.3585 46.2291 14.467 44.0869 14.4644 41.8524C14.4621 40.581 14.7516 39.3258 15.3107 38.183C15.405 37.9701 15.5414 37.7783 15.7118 37.6191C15.8821 37.46 16.0829 37.3367 16.3021 37.2566C16.5214 37.1766 16.7545 37.1415 16.9877 37.1534C17.2209 37.1653 17.4492 37.2239 17.6591 37.3258C17.869 37.4277 18.0562 37.5708 18.2094 37.7465C18.3625 37.9221 18.4786 38.1268 18.5506 38.3482C18.6226 38.5696 18.649 38.8032 18.6284 39.0351C18.6077 39.2669 18.5404 39.4922 18.4304 39.6975C18.1026 40.3718 17.9337 41.1118 17.9367 41.8611C17.9383 42.6186 18.1134 43.3658 18.4485 44.0456C18.7837 44.7254 19.2702 45.32 19.8708 45.784C20.4714 46.248 21.1704 46.5692 21.9144 46.723C22.6584 46.8769 23.4278 46.8593 24.164 46.6717C24.6101 46.557 25.0836 46.6236 25.4804 46.8569C25.8773 47.0902 26.1649 47.4711 26.28 47.9158C26.3951 48.3605 26.3283 48.8326 26.0943 49.2282C25.8602 49.6238 25.4782 49.9105 25.0321 50.0253C24.341 50.1983 23.6309 50.2841 22.9183 50.2806Z" fill="white"/>
<path d="M16.8667 40.6708C16.6458 40.6706 16.4271 40.6284 16.2221 40.5464C14.6689 39.9272 13.3348 38.8625 12.3887 37.4872C11.4425 36.1119 10.9267 34.4877 10.9066 32.8202C10.8865 31.1526 11.363 29.5165 12.2758 28.1189C13.1885 26.7214 14.4966 25.6251 16.0344 24.9688C16.2442 24.8776 16.4701 24.8286 16.6989 24.8247C16.9278 24.8208 17.1552 24.8621 17.368 24.9462C17.5808 25.0302 17.7748 25.1554 17.9389 25.3145C18.103 25.4736 18.234 25.6635 18.3242 25.8732C18.4144 26.083 18.4621 26.3084 18.4646 26.5366C18.467 26.7648 18.4242 26.9912 18.3386 27.2029C18.2529 27.4145 18.1262 27.6072 17.9655 27.7698C17.8049 27.9324 17.6136 28.0617 17.4027 28.1503C16.497 28.5375 15.7267 29.1835 15.1892 30.0069C14.6516 30.8303 14.3709 31.7941 14.3825 32.7764C14.3941 33.7588 14.6976 34.7157 15.2544 35.5262C15.8113 36.3367 16.5966 36.9645 17.5112 37.3303C17.886 37.4801 18.1966 37.7555 18.3897 38.109C18.5828 38.4625 18.6462 38.8721 18.5691 39.2672C18.4921 39.6623 18.2792 40.0183 17.9673 40.2739C17.6554 40.5295 17.2639 40.6687 16.8602 40.6676L16.8667 40.6708Z" fill="white"/>
<path d="M16.7214 28.293C16.3581 28.2931 16.004 28.1795 15.7089 27.9684C15.4138 27.7572 15.1926 27.4592 15.0764 27.1161C14.5985 25.7016 14.5059 24.186 14.8079 22.7241C15.1099 21.2622 15.7958 19.9065 16.7955 18.7954C17.7951 17.6843 19.0727 16.8576 20.4977 16.3999C21.9227 15.9422 23.444 15.8698 24.9062 16.1901C25.3559 16.2889 25.7478 16.5618 25.9956 16.9487C26.2435 17.3356 26.327 17.8048 26.2279 18.2531C26.1287 18.7013 25.855 19.092 25.467 19.3391C25.0789 19.5862 24.6083 19.6695 24.1586 19.5707C23.2967 19.3823 22.4001 19.4253 21.5604 19.6953C20.7206 19.9653 19.9678 20.4527 19.3787 21.1076C18.7897 21.7625 18.3855 22.5615 18.2074 23.4231C18.0294 24.2846 18.0839 25.1779 18.3653 26.0116C18.4528 26.2717 18.4771 26.5488 18.4361 26.8202C18.3951 27.0915 18.2899 27.3492 18.1294 27.572C17.9688 27.7949 17.7574 27.9764 17.5126 28.1018C17.2678 28.2272 16.9966 28.2927 16.7214 28.293Z" fill="white"/>
<path d="M31.2465 55.8156C29.212 55.8158 27.2456 55.0845 25.7083 53.7559C24.1709 52.4274 23.1658 50.5906 22.8772 48.5828C22.818 48.131 22.9399 47.674 23.2165 47.3112C23.493 46.9484 23.902 46.709 24.3545 46.6449C24.8071 46.5808 25.2668 46.6972 25.6337 46.9689C26.0007 47.2406 26.2454 47.6456 26.3148 48.096C26.4567 49.0747 26.8884 49.9888 27.5546 50.7215C28.2208 51.4541 29.0912 51.9718 30.0543 52.2083C31.0174 52.4449 32.0293 52.3895 32.9607 52.0493C33.892 51.709 34.7003 51.0994 35.282 50.2985C35.4159 50.1142 35.5849 49.958 35.7793 49.8387C35.9737 49.7195 36.1898 49.6397 36.4152 49.6037C36.6406 49.5677 36.8709 49.5764 37.093 49.6291C37.315 49.6819 37.5245 49.7778 37.7094 49.9112C37.8942 50.0447 38.051 50.2132 38.1705 50.407C38.2901 50.6009 38.3702 50.8163 38.4063 51.041C38.4424 51.2657 38.4337 51.4953 38.3808 51.7167C38.3278 51.938 38.2317 52.1468 38.0978 52.3312C37.3121 53.4092 36.2819 54.2869 35.0913 54.8924C33.9006 55.498 32.5832 55.8143 31.2465 55.8156Z" fill="white"/>
<path d="M24.5339 19.6066H24.4872C24.0271 19.5944 23.5906 19.4005 23.2738 19.0677C22.957 18.7348 22.7857 18.2901 22.7977 17.8314C22.8435 16.0694 23.4422 14.366 24.5096 12.961C25.577 11.5559 27.0594 10.5198 28.7483 9.99847C30.4371 9.47712 32.2474 9.49675 33.9245 10.0546C35.6016 10.6124 37.061 11.6804 38.0975 13.1083C38.3679 13.4806 38.4789 13.9447 38.406 14.3985C38.3332 14.8523 38.0825 15.2587 37.7091 15.5283C37.3357 15.7978 36.8702 15.9084 36.415 15.8358C35.9597 15.7632 35.5521 15.5132 35.2817 15.141C34.6706 14.3014 33.8111 13.6736 32.8238 13.3459C31.8366 13.0181 30.7712 13.0067 29.7771 13.3134C28.7831 13.6201 27.9103 14.2294 27.2813 15.0558C26.6523 15.8822 26.2987 16.8842 26.27 17.9211C26.2581 18.3723 26.07 18.8009 25.7457 19.1158C25.4214 19.4306 24.9865 19.6067 24.5339 19.6066Z" fill="white"/>
<path d="M50.4558 50.2803C49.7444 50.2806 49.0357 50.192 48.3464 50.0163C48.1256 49.9595 47.9181 49.8599 47.7358 49.7231C47.5536 49.5863 47.4001 49.4151 47.2843 49.2192C47.1684 49.0234 47.0923 48.8066 47.0605 48.5815C47.0286 48.3563 47.0416 48.127 47.0986 47.9068C47.1556 47.6867 47.2555 47.4798 47.3927 47.2981C47.5299 47.1164 47.7016 46.9635 47.8981 46.8479C48.0946 46.7324 48.312 46.6566 48.5378 46.6248C48.7637 46.5931 48.9936 46.606 49.2145 46.6628C49.9507 46.8504 50.7201 46.8679 51.4641 46.7141C52.2081 46.5602 52.9071 46.2391 53.5077 45.7751C54.1084 45.3111 54.5948 44.7165 54.93 44.0367C55.2652 43.3568 55.4402 42.6097 55.4419 41.8521C55.4448 41.1029 55.2759 40.3628 54.9481 39.6886C54.8338 39.4827 54.7627 39.2558 54.7393 39.0216C54.7159 38.7875 54.7406 38.551 54.812 38.3267C54.8834 38.1024 54.9998 37.895 55.1543 37.7171C55.3088 37.5392 55.4981 37.3946 55.7105 37.292C55.923 37.1895 56.1542 37.1313 56.39 37.1208C56.6258 37.1104 56.8613 37.148 57.082 37.2314C57.3027 37.3148 57.5041 37.4421 57.6737 37.6057C57.8434 37.7693 57.9779 37.9656 58.0689 38.1827C58.6258 39.3253 58.9134 40.5796 58.9098 41.85C58.9078 44.0848 58.0165 46.2276 56.4316 47.8081C54.8467 49.3886 52.6976 50.2777 50.4558 50.2803Z" fill="white"/>
<path d="M56.5075 40.6706C56.1038 40.6717 55.7122 40.5324 55.4003 40.2768C55.0884 40.0213 54.8756 39.6653 54.7985 39.2702C54.7215 38.875 54.7849 38.4655 54.978 38.112C55.1711 37.7585 55.4817 37.4831 55.8565 37.3333C56.7711 36.9675 57.5564 36.3397 58.1133 35.5292C58.6701 34.7186 58.9735 33.7618 58.9851 32.7794C58.9967 31.797 58.716 30.8333 58.1785 30.0099C57.6409 29.1865 56.8707 28.5404 55.965 28.1533C55.5446 27.9705 55.2139 27.6294 55.045 27.2043C54.8761 26.7793 54.8827 26.3049 55.0634 25.8847C55.2441 25.4645 55.5842 25.1327 56.0095 24.9616C56.4348 24.7906 56.9107 24.7942 57.3333 24.9718C58.8711 25.6281 60.1792 26.7243 61.0919 28.1219C62.0047 29.5195 62.4812 31.1555 62.4611 32.8231C62.441 34.4907 61.9252 36.1149 60.979 37.4902C60.0328 38.8655 58.6988 39.9301 57.1455 40.5494C56.9424 40.6294 56.7259 40.6705 56.5075 40.6706Z" fill="white"/>
<path d="M56.6527 28.2932C56.377 28.2931 56.1052 28.2276 55.86 28.102C55.6147 27.9764 55.403 27.7943 55.2423 27.5709C55.0817 27.3475 54.9767 27.0892 54.9361 26.8173C54.8955 26.5454 54.9204 26.2678 55.0088 26.0074C55.2906 25.1737 55.3453 24.2803 55.1674 23.4186C54.9895 22.5569 54.5853 21.7577 53.9962 21.1027C53.407 20.4477 52.654 19.9603 51.8141 19.6904C50.9742 19.4205 50.0774 19.3778 49.2155 19.5665C48.7658 19.6653 48.2952 19.5821 47.9071 19.335C47.519 19.0879 47.2453 18.6972 47.1462 18.2489C47.0471 17.8006 47.1306 17.3314 47.3785 16.9445C47.6263 16.5577 48.0182 16.2848 48.4678 16.1859C49.9301 15.8656 51.4514 15.938 52.8764 16.3958C54.3014 16.8535 55.579 17.6801 56.5786 18.7912C57.5783 19.9023 58.2641 21.2581 58.5662 22.72C58.8682 24.1818 58.7756 25.6974 58.2977 27.1119C58.1822 27.4558 57.9613 27.7548 57.6661 27.9668C57.371 28.1788 57.0165 28.2929 56.6527 28.2932Z" fill="white"/>
<path d="M42.1279 55.8156C40.7921 55.8135 39.4758 55.4967 38.2861 54.8912C37.0965 54.2857 36.0671 53.4085 35.282 52.3312C35.1481 52.1469 35.052 51.9381 34.999 51.7167C34.9461 51.4953 34.9374 51.2657 34.9735 51.041C35.0096 50.8163 35.0897 50.6009 35.2093 50.407C35.3289 50.2132 35.4856 50.0447 35.6705 49.9113C35.8553 49.7778 36.0648 49.6819 36.2868 49.6292C36.5089 49.5764 36.7392 49.5678 36.9646 49.6037C37.19 49.6397 37.4061 49.7195 37.6005 49.8388C37.795 49.958 37.9639 50.1142 38.0978 50.2985C38.6796 51.0995 39.488 51.7091 40.4194 52.0492C41.3508 52.3894 42.3628 52.4447 43.326 52.2081C44.2891 51.9714 45.1594 51.4535 45.8255 50.7208C46.4917 49.988 46.9233 49.0737 47.065 48.095C47.0948 47.868 47.1694 47.6491 47.2846 47.4511C47.3998 47.253 47.5532 47.0797 47.736 46.9412C47.9188 46.8027 48.1274 46.7017 48.3496 46.6441C48.5719 46.5865 48.8034 46.5734 49.0307 46.6056C49.2581 46.6378 49.4767 46.7146 49.6741 46.8316C49.8714 46.9487 50.0435 47.1036 50.1804 47.2874C50.3173 47.4712 50.4163 47.6802 50.4716 47.9024C50.5269 48.1246 50.5374 48.3555 50.5026 48.5818C50.2142 50.5907 49.2083 52.4284 47.6698 53.7573C46.1313 55.0862 44.1635 55.8171 42.1279 55.8156Z" fill="white"/>
<path d="M48.84 19.6065C48.3873 19.6066 47.9525 19.4305 47.6282 19.1157C47.3039 18.8008 47.1157 18.3722 47.1038 17.921C47.0737 16.8855 46.7195 15.8852 46.0908 15.0603C45.4622 14.2354 44.5905 13.6271 43.5978 13.3207C42.6051 13.0143 41.5411 13.025 40.5549 13.3514C39.5686 13.6778 38.7094 14.3035 38.0976 15.1409C37.8231 15.5012 37.4181 15.74 36.9691 15.8063C36.5202 15.8725 36.0631 15.7609 35.6958 15.4953C35.3284 15.2297 35.0799 14.8313 35.0035 14.3853C34.9272 13.9394 35.029 13.4813 35.2872 13.1093C36.3237 11.6814 37.7831 10.6134 39.4602 10.0556C41.1373 9.49773 42.9476 9.4781 44.6365 9.99945C46.3253 10.5208 47.8077 11.5569 48.8751 12.962C49.9425 14.367 50.5412 16.0704 50.587 17.8323C50.5929 18.0596 50.5539 18.2857 50.4721 18.4979C50.3904 18.7101 50.2675 18.9042 50.1105 19.069C49.9535 19.2339 49.7655 19.3663 49.5572 19.4587C49.3489 19.5511 49.1244 19.6016 48.8964 19.6075L48.84 19.6065Z" fill="white"/>
<path d="M36.6871 53.0463C36.2266 53.0463 35.785 52.864 35.4594 52.5394C35.1338 52.2148 34.9509 51.7745 34.9509 51.3155V14.1239C34.9509 13.6649 35.1338 13.2246 35.4594 12.9C35.785 12.5754 36.2266 12.3931 36.6871 12.3931C37.1475 12.3931 37.5891 12.5754 37.9147 12.9C38.2403 13.2246 38.4232 13.6649 38.4232 14.1239V51.3155C38.4232 51.7745 38.2403 52.2148 37.9147 52.5394C37.5891 52.864 37.1475 53.0463 36.6871 53.0463Z" fill="white"/>
</svg>
