<svg width="13" height="13" viewBox="0 0 13 13" fill="none" xmlns="http://www.w3.org/2000/svg">
<path d="M12.0622 8.29838L10.633 6.8647C10.3558 6.59778 9.98603 6.44866 9.60126 6.44866C9.21648 6.44866 8.84668 6.59778 8.56954 6.8647L7.64502 7.78922C7.55797 7.87741 7.44425 7.93441 7.3215 7.95137C7.19875 7.96833 7.07384 7.9443 6.96614 7.88301C5.97927 7.33083 5.16459 6.51614 4.6124 5.52927C4.5493 5.41958 4.52345 5.29239 4.53875 5.16676C4.55405 5.04114 4.60967 4.92387 4.69726 4.83253L5.62179 3.90801C5.89398 3.63362 6.04672 3.26279 6.04672 2.87629C6.04672 2.4898 5.89398 2.11897 5.62179 1.84458L4.20597 0.410899C4.0784 0.280871 3.9262 0.177566 3.75826 0.107015C3.59032 0.0364654 3.41001 8.53357e-05 3.22785 0C2.98949 0.00850907 2.75524 0.0646628 2.53893 0.16515C2.32261 0.265637 2.12861 0.408422 1.96836 0.585085L0.726728 1.82671C0.331902 2.21945 0.0816725 2.7343 0.0167924 3.2874C-0.0480876 3.8405 0.0762037 4.39928 0.369425 4.87273C1.27746 6.34568 2.35361 7.70811 3.57622 8.93259C4.78744 10.1535 6.13637 11.2297 7.59589 12.1394C7.99879 12.386 8.46347 12.513 8.93578 12.5056C9.26046 12.5052 9.58187 12.4407 9.88155 12.3158C10.1812 12.1909 10.4533 12.008 10.6821 11.7776L12.0622 10.3663C12.1982 10.2306 12.3061 10.0695 12.3797 9.89203C12.4533 9.71461 12.4912 9.52441 12.4912 9.33232C12.4912 9.14024 12.4533 8.95004 12.3797 8.77262C12.3061 8.5952 12.1982 8.43404 12.0622 8.29838ZM11.4324 9.73206L10.0345 11.1657C9.78299 11.419 9.45298 11.5795 9.09843 11.6209C8.74388 11.6623 8.38578 11.5821 8.08272 11.3935C6.67698 10.5195 5.37621 9.48696 4.20597 8.31624C3.03288 7.14157 2.0002 5.8346 1.12869 4.42163C0.934991 4.11872 0.850642 3.7587 0.889634 3.40127C0.928626 3.04385 1.08862 2.71048 1.34308 2.45646L2.60257 1.21483C2.762 1.03136 2.98588 0.91622 3.22785 0.893259C3.29289 0.892826 3.35734 0.905674 3.41724 0.931018C3.47714 0.956361 3.53124 0.993665 3.57622 1.04065L5.00544 2.47433C5.05837 2.52703 5.10038 2.58967 5.12904 2.65865C5.1577 2.72763 5.17246 2.8016 5.17246 2.87629C5.17246 2.95099 5.1577 3.02495 5.12904 3.09394C5.10038 3.16292 5.05837 3.22556 5.00544 3.27826L4.08538 4.20278C3.85966 4.43123 3.71446 4.72696 3.67175 5.04526C3.62904 5.36356 3.69115 5.6871 3.84867 5.96697C4.16528 6.52487 4.55424 7.03847 5.00544 7.49444C5.46416 7.95386 5.9842 8.34764 6.55078 8.66461C6.82885 8.81959 7.14995 8.87946 7.4652 8.83512C7.78044 8.79078 8.07256 8.64464 8.2971 8.41897L9.21715 7.49444C9.32452 7.39101 9.4678 7.33322 9.61689 7.33322C9.76597 7.33322 9.90925 7.39101 10.0166 7.49444L11.4503 8.93259C11.5537 9.03996 11.6115 9.18324 11.6115 9.33232C11.6115 9.48141 11.5537 9.62469 11.4503 9.73206H11.4324Z" fill="black"/>
</svg>
