<svg width="14" height="13" viewBox="0 0 14 13" fill="none" xmlns="http://www.w3.org/2000/svg">
<g clip-path="url(#clip0_16_1118)">
<path d="M7 6.70971C7.60571 6.70971 8.19781 6.53755 8.70144 6.215C9.20506 5.89244 9.59759 5.43398 9.82939 4.89759C10.0612 4.3612 10.1218 3.77097 10.0037 3.20155C9.88549 2.63212 9.59382 2.10906 9.16552 1.69853C8.73722 1.28799 8.19154 1.00842 7.59747 0.895151C7.0034 0.781885 6.38763 0.840017 5.82804 1.0622C5.26844 1.28438 4.79014 1.66062 4.45363 2.14336C4.11712 2.6261 3.9375 3.19365 3.9375 3.77423C3.9375 4.55277 4.26016 5.29942 4.83449 5.84993C5.40882 6.40044 6.18778 6.70971 7 6.70971ZM7 1.67746C7.43265 1.67746 7.85558 1.80043 8.21531 2.03083C8.57505 2.26122 8.85542 2.58869 9.02099 2.97183C9.18656 3.35496 9.22988 3.77656 9.14547 4.18329C9.06107 4.59002 8.85273 4.96363 8.5468 5.25687C8.24087 5.55011 7.8511 5.74981 7.42676 5.83072C7.00243 5.91162 6.5626 5.8701 6.16288 5.7114C5.76317 5.5527 5.42153 5.28395 5.18116 4.93914C4.9408 4.59432 4.8125 4.18893 4.8125 3.77423C4.8125 3.21813 5.04297 2.68481 5.45321 2.29159C5.86344 1.89837 6.41984 1.67746 7 1.67746ZM12.215 11.1171C11.6506 9.01617 9.50688 7.54842 7 7.54842C4.49313 7.54842 2.34938 9.01617 1.785 11.1171C1.74175 11.2846 1.73897 11.4592 1.77688 11.6279C1.81479 11.7965 1.89239 11.9546 2.00375 12.09C2.13092 12.2423 2.29199 12.3654 2.47518 12.4503C2.65836 12.5351 2.85903 12.5797 3.0625 12.5807H10.9375C11.1439 12.5822 11.348 12.5389 11.5344 12.4539C11.7209 12.3689 11.8847 12.2445 12.0138 12.09C12.1221 11.9531 12.1966 11.7944 12.2314 11.6258C12.2663 11.4573 12.2607 11.2833 12.215 11.1171ZM11.305 11.5742C11.2603 11.6262 11.2042 11.6682 11.1407 11.6972C11.0772 11.7262 11.0078 11.7414 10.9375 11.742H3.0625C2.98924 11.744 2.91647 11.7299 2.84975 11.7008C2.78303 11.6717 2.72411 11.6284 2.6775 11.5742C2.64821 11.5395 2.62814 11.4984 2.619 11.4546C2.60985 11.4108 2.61191 11.3655 2.625 11.3226C3.08438 9.62004 4.9175 8.38713 7 8.38713C9.0825 8.38713 10.9069 9.6452 11.375 11.3226C11.3858 11.3668 11.385 11.4129 11.3728 11.4568C11.3606 11.5007 11.3373 11.541 11.305 11.5742Z" fill="#1A030B"/>
</g>
<defs>
<clipPath id="clip0_16_1118">
<rect width="14" height="13" fill="white"/>
</clipPath>
</defs>
</svg>
