<svg width="48" height="48" viewBox="0 0 48 48" fill="none" xmlns="http://www.w3.org/2000/svg">
<path d="M24 1.92004C11.8172 1.92004 1.92001 11.8172 1.92001 24C1.92001 27.916 2.99395 31.5705 4.78501 34.7607L1.95564 44.8613C1.91044 45.0229 1.90839 45.1936 1.94971 45.3562C1.99104 45.5189 2.07428 45.6679 2.19114 45.7884C2.308 45.9088 2.45439 45.9966 2.61573 46.0428C2.77707 46.089 2.94771 46.0922 3.11064 46.0519L13.6425 43.4419C16.7373 45.0941 20.2489 46.08 24 46.08C36.1829 46.08 46.08 36.1829 46.08 24C46.08 11.8172 36.1829 1.92004 24 1.92004ZM24 3.84004C35.1452 3.84004 44.16 12.8549 44.16 24C44.16 35.1452 35.1452 44.16 24 44.16C20.4269 44.16 17.0804 43.2285 14.1713 41.6007C13.9585 41.4818 13.7085 41.4483 13.4719 41.5069L4.24876 43.7925L6.72189 34.9688C6.75728 34.8441 6.76705 34.7135 6.75061 34.5849C6.73418 34.4564 6.69188 34.3325 6.62626 34.2207C4.85827 31.2227 3.84001 27.7345 3.84001 24C3.84001 12.8549 12.8549 3.84004 24 3.84004ZM15.9769 12.48C15.3615 12.48 14.4826 12.709 13.7606 13.4869C13.327 13.9542 11.52 15.7148 11.52 18.81C11.52 22.0371 13.7581 24.8217 14.0288 25.1794H14.0306V25.1813C14.005 25.1476 14.3741 25.6821 14.8669 26.3232C15.3597 26.9642 16.0487 27.8061 16.9144 28.7175C18.6457 30.5404 21.08 32.6472 24.1013 33.9357C25.4926 34.5282 26.5903 34.8859 27.4219 35.1469C28.9631 35.6309 30.3668 35.5573 31.4213 35.4019C32.2105 35.2857 33.0786 34.9067 33.9375 34.3632C34.7964 33.8196 35.6382 33.1438 36.0094 32.1169C36.2753 31.3808 36.4105 30.7005 36.4594 30.1407C36.4838 29.8608 36.4869 29.6137 36.4688 29.385C36.4506 29.1563 36.47 28.9812 36.2569 28.6313C35.8099 27.8975 35.3038 27.8783 34.7756 27.6169C34.4822 27.4717 33.6467 27.0637 32.8088 26.6644C31.9717 26.2656 31.247 25.9123 30.8006 25.7532C30.5186 25.6517 30.1743 25.5057 29.6775 25.5619C29.1807 25.6182 28.6901 25.9766 28.4044 26.4C28.1336 26.8014 27.0436 28.0881 26.7113 28.4663C26.7068 28.4636 26.7357 28.4769 26.6044 28.4119C26.1934 28.2085 25.6907 28.0355 24.9469 27.6432C24.2031 27.2508 23.2726 26.6714 22.2544 25.7738V25.7719C20.7389 24.4378 19.6774 22.7627 19.3425 22.2C19.3651 22.1732 19.3398 22.2057 19.3875 22.1588L19.3894 22.1569C19.7316 21.8198 20.035 21.4172 20.2913 21.1219C20.6547 20.7033 20.815 20.3342 20.9888 19.9894C21.335 19.3022 21.1422 18.546 20.9419 18.1482V18.1463C20.9557 18.1738 20.8335 17.9042 20.7019 17.5932C20.5699 17.2813 20.4016 16.8769 20.2219 16.4457C19.8624 15.5832 19.4612 14.616 19.2225 14.0494V14.0475C18.9414 13.3802 18.561 12.8995 18.0638 12.6675C17.5665 12.4356 17.1272 12.5015 17.1094 12.5007H17.1075C16.7527 12.4843 16.3632 12.48 15.9769 12.48ZM15.9769 14.4C16.347 14.4 16.7119 14.4046 17.0175 14.4188C17.3319 14.4345 17.3124 14.4357 17.2519 14.4075C17.1905 14.3789 17.2738 14.3696 17.4525 14.7938C17.6862 15.3485 18.0895 16.3193 18.45 17.1844C18.6303 17.617 18.799 18.0229 18.9338 18.3413C19.0685 18.6597 19.1415 18.8374 19.2263 19.0069V19.0088L19.2281 19.0107C19.3112 19.1746 19.3039 19.0696 19.275 19.1269C19.0724 19.529 19.0449 19.6277 18.84 19.8638C18.528 20.2232 18.2097 20.6241 18.0413 20.79C17.8939 20.9348 17.6279 21.1604 17.4619 21.6019C17.2956 22.0441 17.3732 22.6508 17.64 23.1038C17.9952 23.7069 19.1658 25.6122 20.985 27.2138C22.1307 28.2237 23.198 28.8921 24.0506 29.3419C24.9033 29.7917 25.5977 30.0544 25.7531 30.1313C26.1221 30.3139 26.5254 30.4557 26.9944 30.3994C27.4633 30.3431 27.8676 30.0586 28.125 29.7675L28.1269 29.7657C28.4694 29.3773 29.4872 28.2151 29.9756 27.4988C29.9963 27.5061 29.9896 27.5004 30.1519 27.5588V27.5607H30.1538C30.2279 27.5871 31.1561 28.0025 31.9838 28.3969C32.8114 28.7913 33.6514 29.2012 33.9244 29.3363C34.3183 29.5313 34.5044 29.6582 34.5525 29.6588C34.5558 29.7433 34.559 29.8348 34.5469 29.9738C34.5132 30.3594 34.4102 30.8931 34.2038 31.4644C34.1027 31.7441 33.576 32.321 32.9119 32.7413C32.2477 33.1616 31.4394 33.4585 31.14 33.5025C30.2399 33.6352 29.1712 33.6836 27.9975 33.315C27.1837 33.0596 26.1689 32.7289 24.855 32.1694C22.1902 31.033 19.9254 29.0991 18.3075 27.3957C17.4986 26.544 16.8505 25.7511 16.3894 25.1513C15.9292 24.5526 15.7282 24.2411 15.5606 24.0207L15.5588 24.0188C15.2613 23.6255 13.44 21.0921 13.44 18.81C13.44 16.3949 14.5618 15.4478 15.1688 14.7938C15.4874 14.4504 15.8358 14.4 15.9769 14.4Z" fill="#1A030B"/>
</svg>
