<svg width="14" height="13" viewBox="0 0 14 13" fill="none" xmlns="http://www.w3.org/2000/svg">
<g clip-path="url(#clip0_16_1123)">
<path d="M10.0625 2.093C9.64287 1.68595 9.14427 1.36742 8.59684 1.15664C8.04941 0.945855 7.46451 0.84721 6.87749 0.866665C5.98546 0.891162 5.12233 1.18525 4.40387 1.70949C3.6854 2.23373 3.14597 2.96305 2.85793 3.79961C2.56989 4.63617 2.54701 5.53997 2.79237 6.38978C3.03772 7.23959 3.53958 7.99476 4.23062 8.554C4.2773 8.5934 4.3145 8.64265 4.33948 8.69813C4.36446 8.75362 4.37659 8.81393 4.37499 8.87466V11.7C4.37499 12.0448 4.51327 12.3754 4.75941 12.6192C5.00556 12.863 5.3394 13 5.68749 13H8.31249C8.66059 13 8.99443 12.863 9.24057 12.6192C9.48671 12.3754 9.62499 12.0448 9.62499 11.7V8.87466C9.62339 8.81393 9.63553 8.75362 9.66051 8.69813C9.68549 8.64265 9.72268 8.5934 9.76937 8.554C10.2474 8.16837 10.6378 7.68701 10.9149 7.14148C11.192 6.59596 11.3495 5.99859 11.3772 5.38854C11.4049 4.77848 11.302 4.16952 11.0755 3.60158C10.8489 3.03364 10.5037 2.51955 10.0625 2.093ZM8.31249 12.1333H5.68749C5.57146 12.1333 5.46018 12.0877 5.37813 12.0064C5.29609 11.9251 5.24999 11.8149 5.24999 11.7V10.8333H8.74999V11.7C8.74999 11.8149 8.7039 11.9251 8.62185 12.0064C8.5398 12.0877 8.42852 12.1333 8.31249 12.1333ZM9.21812 7.88233C9.07049 8.00285 8.95187 8.15446 8.87089 8.32613C8.78991 8.49779 8.74861 8.68519 8.74999 8.87466V9.96666H7.43749V5.707L8.15937 5.096C8.24755 5.0213 8.30216 4.91495 8.31119 4.80037C8.32021 4.68579 8.28291 4.57234 8.20749 4.485C8.13207 4.39765 8.02471 4.34356 7.90902 4.33462C7.79334 4.32568 7.6788 4.36263 7.59062 4.43733L6.99999 4.94L6.40937 4.43733C6.3657 4.40034 6.31511 4.37223 6.26048 4.35461C6.20585 4.33699 6.14825 4.3302 6.09096 4.33462C6.03368 4.33905 5.97784 4.35461 5.92663 4.38041C5.87542 4.40621 5.82984 4.44175 5.79249 4.485C5.75515 4.52825 5.72677 4.57836 5.70898 4.63247C5.69118 4.68658 5.68433 4.74363 5.6888 4.80037C5.69326 4.85711 5.70897 4.91242 5.73502 4.96314C5.76107 5.01386 5.79695 5.05901 5.84062 5.096L6.56249 5.707V9.96666H5.24999V8.87466C5.2501 8.68582 5.20867 8.49923 5.12858 8.32785C5.04849 8.15648 4.93167 8.00445 4.78624 7.88233C4.37975 7.556 4.05294 7.14292 3.83022 6.67395C3.60749 6.20498 3.49461 5.69223 3.49999 5.174C3.51394 4.2784 3.87431 3.42225 4.5068 2.78208C5.13929 2.14191 5.99567 1.76652 6.89937 1.73333H6.99999C7.72194 1.73315 8.42629 1.95409 9.01651 2.3659C9.60672 2.7777 10.0539 3.36021 10.2968 4.03359C10.5397 4.70698 10.5665 5.43829 10.3734 6.12731C10.1802 6.81633 9.77673 7.42934 9.21812 7.88233Z" fill="#1A030B"/>
</g>
<defs>
<clipPath id="clip0_16_1123">
<rect width="14" height="13" fill="white"/>
</clipPath>
</defs>
</svg>
