<svg width="520" height="397" viewBox="0 0 520 397" fill="none" xmlns="http://www.w3.org/2000/svg">
<path d="M520 350.07H0V350.33H520V350.07Z" fill="#EBEBEB"/>
<path d="M81.5986 359.963H54.5586V360.223H81.5986V359.963Z" fill="#EBEBEB"/>
<path d="M208.447 357.147H152.183V357.407H208.447V357.147Z" fill="#EBEBEB"/>
<path d="M110.011 369.617H82.6384V369.877H110.011V369.617Z" fill="#EBEBEB"/>
<path d="M467.896 367.871H447.897V368.131H467.896V367.871Z" fill="#EBEBEB"/>
<path d="M438.631 367.871H407.129V368.131H438.631V367.871Z" fill="#EBEBEB"/>
<path d="M325.302 363.486H268.559V363.746H325.302V363.486Z" fill="#EBEBEB"/>
<path d="M246.48 303.722H45.6663C44.0931 303.719 42.5853 303.093 41.4739 301.98C40.3625 300.868 39.7383 299.36 39.7383 297.788V15.7192C39.752 14.1563 40.3823 12.6619 41.4922 11.5606C42.6021 10.4593 44.1021 9.84008 45.6663 9.8374H246.48C248.055 9.8374 249.565 10.4626 250.679 11.5754C251.793 12.6882 252.418 14.1975 252.418 15.7712V297.788C252.418 299.362 251.793 300.871 250.679 301.984C249.565 303.097 248.055 303.722 246.48 303.722ZM45.6663 10.0452C44.1621 10.048 42.7204 10.647 41.6578 11.7108C40.5951 12.7746 39.9983 14.2162 39.9983 15.7192V297.788C39.9983 299.291 40.5951 300.733 41.6578 301.797C42.7204 302.86 44.1621 303.459 45.6663 303.462H246.48C247.985 303.459 249.428 302.861 250.492 301.797C251.556 300.734 252.156 299.292 252.158 297.788V15.7192C252.156 14.2153 251.556 12.7736 250.492 11.7102C249.428 10.6467 247.985 10.048 246.48 10.0452H45.6663Z" fill="#EBEBEB"/>
<path d="M471.443 303.722H270.619C269.044 303.719 267.536 303.093 266.422 301.981C265.309 300.869 264.683 299.361 264.68 297.788V15.7192C264.697 14.1554 265.329 12.661 266.441 11.56C267.552 10.459 269.053 9.84005 270.619 9.8374H471.443C473.005 9.84281 474.502 10.4633 475.61 11.5643C476.718 12.6653 477.346 14.1581 477.36 15.7192V297.788C477.36 299.358 476.737 300.864 475.628 301.977C474.519 303.089 473.014 303.716 471.443 303.722ZM270.619 10.0452C269.113 10.048 267.671 10.6467 266.606 11.7102C265.542 12.7736 264.943 14.2153 264.94 15.7192V297.788C264.943 299.292 265.542 300.734 266.606 301.797C267.671 302.861 269.113 303.459 270.619 303.462H471.443C472.948 303.459 474.39 302.861 475.455 301.797C476.519 300.734 477.118 299.292 477.121 297.788V15.7192C477.118 14.2153 476.519 12.7736 475.455 11.7102C474.39 10.6467 472.948 10.048 471.443 10.0452H270.619Z" fill="#EBEBEB"/>
<path d="M225.888 33.1569H60.5488V187.893H225.888V33.1569Z" fill="#E6E6E6"/>
<path d="M231.827 33.1569H63.3257V187.893H231.827V33.1569Z" fill="#F0F0F0"/>
<path d="M225.888 187.893H60.5488V194.939H225.888V187.893Z" fill="#E6E6E6"/>
<path d="M241.717 187.893H73.2158V194.939H241.717V187.893Z" fill="#F0F0F0"/>
<path d="M223.506 179.59V41.4703L71.6247 41.4703V179.59H223.506Z" fill="#FAFAFA"/>
<path d="M87.5366 179.59L136.333 41.4703H159.359L110.573 179.59H87.5366Z" fill="white"/>
<path d="M75.4832 183.445C75.6404 183.445 75.7912 183.383 75.9023 183.272C76.0135 183.161 76.076 183.01 76.076 182.853V46.8742C76.076 46.7171 76.0135 46.5664 75.9023 46.4554C75.7912 46.3443 75.6404 46.2819 75.4832 46.2819C75.326 46.2819 75.1752 46.3443 75.064 46.4554C74.9528 46.5664 74.8904 46.7171 74.8904 46.8742V182.853C74.8904 183.01 74.9528 183.161 75.064 183.272C75.1752 183.383 75.326 183.445 75.4832 183.445Z" fill="#E0E0E0"/>
<path d="M115.523 179.59L164.31 41.4703H173.295L124.498 179.59H115.523Z" fill="white"/>
<path d="M223.506 179.579V41.46H222.446V179.579H223.506Z" fill="#E6E6E6"/>
<path opacity="0.5" d="M233.792 58.4407H68.4527L67.6831 44.6921H233.022L233.792 58.4407Z" fill="#E6E6E6"/>
<path opacity="0.5" d="M233.792 72.3865H68.4527L67.6831 58.6483H233.022L233.792 72.3865Z" fill="#E6E6E6"/>
<path opacity="0.5" d="M233.792 86.3325H68.4527L67.6831 72.5944H233.022L233.792 86.3325Z" fill="#E6E6E6"/>
<path opacity="0.5" d="M233.792 100.279H68.4527L67.6831 86.5405H233.022L233.792 100.279Z" fill="#E6E6E6"/>
<path opacity="0.5" d="M233.792 114.235H68.4527L67.6831 100.497H233.022L233.792 114.235Z" fill="#E6E6E6"/>
<path opacity="0.5" d="M233.792 128.181H68.4527L67.6831 114.443H233.022L233.792 128.181Z" fill="#E6E6E6"/>
<path d="M276.38 224.774H229.289V350.07H276.38V224.774Z" fill="#E6E6E6"/>
<path d="M269.235 350.07H276.38V333.006H261.758L269.235 350.07Z" fill="#F0F0F0"/>
<path d="M101.774 224.774H54.6831V350.07H101.774V224.774Z" fill="#E6E6E6"/>
<path d="M276.38 224.774H95.5449V339.595H276.38V224.774Z" fill="#F0F0F0"/>
<path d="M270.847 229.866H101.088V261.354H270.847V229.866Z" fill="#E6E6E6"/>
<path d="M208.426 238.107H163.509C143.998 238.107 125.351 234.22 111.935 227.362H260C246.584 234.22 227.937 238.107 208.426 238.107Z" fill="#F0F0F0"/>
<path d="M102.69 350.07H95.5449V333.006H110.167L102.69 350.07Z" fill="#F0F0F0"/>
<path d="M270.847 266.435H101.088V297.923H270.847V266.435Z" fill="#E6E6E6"/>
<path d="M208.426 274.687H163.509C143.998 274.687 125.351 270.8 111.935 263.941H260C246.584 270.8 227.937 274.687 208.426 274.687Z" fill="#F0F0F0"/>
<path d="M270.847 303.015H101.088V334.503H270.847V303.015Z" fill="#E6E6E6"/>
<path d="M208.426 311.266H163.509C143.998 311.266 125.351 307.379 111.935 300.521H260C246.584 307.379 227.937 311.266 208.426 311.266Z" fill="#F0F0F0"/>
<path d="M331.23 174.737H430.342V42.2706H331.23V174.737Z" fill="#E6E6E6"/>
<path d="M324.782 174.737H428.958V42.2706H324.782V174.737Z" fill="#F0F0F0"/>
<path d="M414.544 160.323V56.6741L339.207 56.6741V160.323H414.544Z" fill="white"/>
<path d="M348.244 131.434H405.486V122.257H348.244V131.434Z" fill="#F0F0F0"/>
<path d="M356.086 144.642H397.644V135.466H356.086V144.642Z" fill="#F0F0F0"/>
<path d="M376.875 112.229C388.788 112.229 398.445 102.58 398.445 90.6764C398.445 78.7731 388.788 69.1235 376.875 69.1235C364.963 69.1235 355.306 78.7731 355.306 90.6764C355.306 102.58 364.963 112.229 376.875 112.229Z" fill="#F0F0F0"/>
<path d="M340.33 160.323V56.6741H339.196V160.323H340.33Z" fill="#E6E6E6"/>
<path d="M373.36 259.14C373.317 258.933 373.203 258.747 373.038 258.615C372.873 258.482 372.667 258.411 372.455 258.413H337.74C337.529 258.411 337.325 258.483 337.162 258.616C336.999 258.748 336.887 258.934 336.846 259.14L324.48 350.07H326.352L338.489 260.283H371.769L383.874 350.111H385.746L373.36 259.14Z" fill="#F0F0F0"/>
<path d="M440.7 259.14C440.657 258.933 440.543 258.747 440.378 258.615C440.213 258.482 440.007 258.411 439.795 258.413H405.038C404.828 258.411 404.623 258.483 404.46 258.616C404.297 258.748 404.185 258.934 404.144 259.14L391.81 350.07H393.682L405.787 260.283H439.067L451.152 350.07H453.024L440.7 259.14Z" fill="#F0F0F0"/>
<path d="M441.688 251.471H332.363C327.163 251.471 322.91 253.986 322.91 257.083V257.28C322.91 258.402 324.449 259.358 326.352 259.358H447.699C449.602 259.358 451.142 258.444 451.142 257.28V257.083C451.142 253.986 446.909 251.471 441.688 251.471Z" fill="#E0E0E0"/>
<path d="M448.375 206.464H376.095L365.623 249.112H437.903L448.375 206.464Z" fill="#E6E6E6"/>
<path d="M437.902 249.112L437.611 251.471H365.321L365.612 249.112H437.902Z" fill="#E6E6E6"/>
<path d="M446.16 206.464H373.87L363.397 249.112H435.677L446.16 206.464Z" fill="#F0F0F0"/>
<path d="M434.148 247.158L443.674 208.407H375.398L365.882 247.158H434.148Z" fill="white"/>
<path d="M416.842 249.112L416.551 251.471H336.949L337.241 249.112H416.842Z" fill="#F0F0F0"/>
<path d="M260 397C371.366 397 461.646 391.733 461.646 385.236C461.646 378.739 371.366 373.473 260 373.473C148.634 373.473 58.3545 378.739 58.3545 385.236C58.3545 391.733 148.634 397 260 397Z" fill="#F5F5F5"/>
<path d="M82.9173 297.872L81.9321 298.205L84.1106 304.643L85.0958 304.31L82.9173 297.872Z" fill="#FCD7E0"/>
<path d="M80.5892 292.582C79.6038 286.809 80.8853 280.879 84.1668 276.027C86.6503 272.622 90.1377 270.078 94.1404 268.753L94.4732 269.73C90.6696 270.981 87.3602 273.404 85.0196 276.651C81.8855 281.283 80.6668 286.947 81.6188 292.457L80.5892 292.582Z" fill="#FCD7E0"/>
<path d="M368.16 337.859H206.492L192.67 297.04C187.813 282.668 172.213 271.06 157.83 271.06H102.617C88.2438 271.06 80.527 282.709 85.3838 297.04L99.2262 337.922C101.383 344.31 105.492 349.862 110.974 353.794C116.455 357.726 123.034 359.84 129.781 359.838H368.16C370.184 359.838 372.126 359.035 373.558 357.604C374.989 356.174 375.793 354.234 375.793 352.211V345.497C375.795 344.495 375.598 343.502 375.215 342.575C374.832 341.649 374.27 340.806 373.561 340.097C372.852 339.388 372.01 338.825 371.083 338.441C370.157 338.057 369.163 337.859 368.16 337.859Z" fill="#FCD7E0"/>
<path opacity="0.2" d="M192.67 297.04C187.813 282.668 172.213 271.06 157.83 271.06H120.64C106.256 271.06 98.55 282.709 103.407 297.04L117.239 337.922L206.481 337.859L192.67 297.04Z" fill="white"/>
<path opacity="0.2" d="M276.12 359.838H368.139C372.355 359.838 375.773 356.423 375.773 352.21V345.487C375.773 341.274 372.355 337.859 368.139 337.859H276.12C271.904 337.859 268.487 341.274 268.487 345.487V352.21C268.487 356.423 271.904 359.838 276.12 359.838Z" fill="white"/>
<path d="M280.935 380.019H276.11V359.838H283.962L280.935 380.019Z" fill="#263238"/>
<path d="M363.314 380.019H368.139V359.838H360.277L363.314 380.019Z" fill="#263238"/>
<path d="M140.431 380.019H135.605V359.838H143.457L140.431 380.019Z" fill="#263238"/>
<path d="M222.799 380.019H227.624V359.838H219.772L222.799 380.019Z" fill="#263238"/>
<path d="M154.253 235.28C155.105 238.679 158.901 242.098 160.014 243.469C161.127 244.841 155.584 246.41 155.584 246.41L150.02 240.393L154.253 235.28Z" fill="#263238"/>
<path d="M157.955 262.362L160.035 262.486L162.302 262.59C163.831 262.59 165.36 262.705 166.888 262.715C169.946 262.715 172.983 262.715 175.936 262.518C177.413 262.424 178.88 262.299 180.304 262.123C181.729 261.946 183.144 261.769 184.464 261.499C186.937 261.062 189.352 260.344 191.661 259.358L188.021 263.287C189.113 261.302 190.236 259.223 191.276 257.051C192.316 254.88 193.356 252.614 194.396 250.317C195.436 248.021 196.393 245.693 197.402 243.344C198.411 240.996 199.399 238.585 200.428 236.319L200.522 236.112C200.99 235.085 201.794 234.248 202.801 233.738C203.808 233.228 204.959 233.076 206.065 233.307C207.17 233.538 208.163 234.139 208.882 235.009C209.6 235.879 210.001 236.968 210.017 238.096C210.017 240.954 209.893 243.615 209.664 246.358C209.435 249.102 209.04 251.783 208.624 254.495C208.208 257.207 207.584 259.93 206.845 262.653C206.106 265.442 205.207 268.187 204.152 270.873C203.576 272.324 202.547 273.552 201.219 274.375L200.512 274.801C196.948 276.97 193.097 278.628 189.072 279.727C185.398 280.767 181.645 281.5 177.85 281.919C174.212 282.346 170.552 282.558 166.888 282.553C165.079 282.553 163.269 282.553 161.46 282.408C160.555 282.408 159.64 282.304 158.735 282.221L157.352 282.086L155.844 281.909C153.355 281.569 151.092 280.29 149.518 278.334C147.944 276.378 147.178 273.895 147.379 271.393C147.58 268.892 148.732 266.562 150.598 264.882C152.464 263.203 154.903 262.301 157.414 262.362H157.955Z" fill="#263238"/>
<path d="M206.492 233.379C201.157 232.184 200.137 235.405 199.617 237.941C199.097 240.476 200.959 244.02 205.181 244.997C209.404 245.974 210.111 243.064 210.309 241.536C210.506 240.009 212.659 234.761 206.492 233.379Z" fill="#FCD7E0"/>
<path d="M209.04 240.912L212.95 238.481L206.107 230.292C206.107 230.292 199.566 233.732 201.001 237.41L203.996 240.362C204.653 241.006 205.507 241.411 206.422 241.511C207.337 241.611 208.259 241.4 209.04 240.912Z" fill="#B55B52"/>
<path d="M200.98 237.234C199.774 230.999 205.483 229.211 205.993 226.052C206.004 225.868 206.082 225.693 206.211 225.561C206.341 225.429 206.514 225.348 206.698 225.333C206.883 225.318 207.066 225.369 207.216 225.479C207.365 225.588 207.47 225.747 207.511 225.928C207.837 227.148 207.681 228.446 207.075 229.554C206.326 230.427 210.267 235.114 206.731 237.203C204.826 236.894 202.882 236.904 200.98 237.234Z" fill="#B55B52"/>
<path d="M216.32 230.354L215.228 228.92C214.637 228.142 213.778 227.611 212.817 227.428C211.857 227.246 210.863 227.426 210.028 227.933L206.117 230.292L212.96 238.481L215.935 235.54C216.616 234.869 217.031 233.973 217.102 233.019C217.173 232.066 216.895 231.119 216.32 230.354Z" fill="#B55B52"/>
<path d="M323.918 336.145C322.67 334.066 320.164 334.607 317.325 334.066C317.325 334.066 322.036 321.908 324.605 323.404C329.867 326.522 336.045 321.991 341.588 315.725C342.358 314.852 344.334 317.554 342.982 319.881C339.602 325.743 334.745 328.195 332.218 331.094C330.054 333.557 330.044 335.48 327.985 337.132C326.269 338.483 325.156 338.223 323.918 336.145Z" fill="#263238"/>
<path d="M289.598 334.368C290.212 332.019 290.826 328.725 289.245 326.303C289.245 326.303 301.205 321.107 301.954 323.965C303.472 329.857 304.907 332.58 315.026 334.357C316.17 334.565 318.271 337.932 315.567 337.932C307.746 337.932 302.858 337.09 299.042 337.319C295.766 337.506 294.403 338.192 291.762 337.89C289.609 337.683 288.974 336.737 289.598 334.368Z" fill="#263238"/>
<path d="M161.782 264.7C152.547 263.941 140.535 265.978 133.567 271.299C131.333 272.947 129.632 275.214 128.675 277.818C127.717 280.422 127.545 283.25 128.18 285.951C133.733 308.668 162.708 339.844 198.203 339.844L222.008 295.47C222.008 295.47 224.64 278.895 189.768 280.651C179.784 270.395 170.955 265.479 161.782 264.7Z" fill="#263238"/>
<path d="M218.649 292.197C238.718 284.941 259.488 279.79 280.623 276.827C299.613 274.229 303.066 326.709 303.066 326.709L289.245 328.974C286.697 314.363 278.741 310.404 275.215 299.367C260.385 313.168 227.552 325.087 202.956 315.08C206.721 305.28 208.104 303.732 211.9 297.871C215.113 292.955 218.649 292.197 218.649 292.197Z" fill="#FCD7E0"/>
<path opacity="0.3" d="M218.649 292.197C238.718 284.941 259.488 279.79 280.623 276.827C299.613 274.229 303.066 326.709 303.066 326.709L289.245 328.974C286.697 314.363 278.741 310.404 275.215 299.367C260.385 313.168 227.552 325.087 202.956 315.08C206.721 305.28 208.104 303.732 211.9 297.871C215.113 292.955 218.649 292.197 218.649 292.197Z" fill="black"/>
<path d="M208.364 303.41C208.364 303.41 246.605 303.971 280.301 312.441C296.452 316.494 327.101 323.373 327.101 323.373L321.162 335.345C321.162 335.345 301.652 336.789 269.984 331.26C248.623 339.117 229.549 339.844 198.224 339.844C198.006 320.172 208.364 303.41 208.364 303.41Z" fill="#FCD7E0"/>
<path opacity="0.2" d="M208.364 303.41C208.364 303.41 246.605 303.971 280.301 312.441C296.452 316.494 327.101 323.373 327.101 323.373L321.162 335.345C321.162 335.345 301.652 336.789 269.984 331.26C248.623 339.117 229.549 339.844 198.224 339.844C198.006 320.172 208.364 303.41 208.364 303.41Z" fill="black"/>
<path d="M147.056 284.798L146.078 294.078C145.746 297.195 145.486 300.313 145.215 303.43C145.101 304.979 144.976 306.548 144.903 308.076C144.83 309.603 144.726 311.193 144.654 312.679C144.57 315.714 144.518 318.707 144.654 321.554L142.48 316.711C143.795 318.422 145.322 319.958 147.025 321.284C147.95 321.98 148.928 322.697 149.958 323.362C150.987 324.027 152.1 324.672 153.234 325.295C155.57 326.559 157.977 327.69 160.441 328.683C161.699 329.192 162.968 329.722 164.268 330.159C164.913 330.398 165.558 330.637 166.213 330.844L168.054 331.489L168.605 331.686C169.677 332.061 170.585 332.796 171.175 333.767C171.764 334.737 171.998 335.882 171.836 337.005C171.673 338.129 171.126 339.161 170.286 339.925C169.446 340.689 168.366 341.138 167.232 341.195C166.265 341.247 165.537 341.288 164.694 341.299C163.852 341.309 163.082 341.299 162.281 341.299C160.669 341.236 159.068 341.133 157.456 340.956C154.192 340.591 150.964 339.958 147.805 339.064C144.485 338.117 141.274 336.821 138.226 335.199C136.619 334.323 135.067 333.352 133.578 332.289C132.029 331.147 130.572 329.886 129.22 328.517C128.115 327.444 127.386 326.045 127.14 324.526L126.994 323.643C126.411 320.085 126.026 316.498 125.84 312.898C125.653 309.385 125.632 305.914 125.705 302.506C125.778 299.097 125.996 295.657 126.277 292.259C126.433 290.565 126.589 288.871 126.807 287.177C127.026 285.484 127.244 283.842 127.535 281.981C127.934 279.446 129.309 277.167 131.367 275.631C133.426 274.095 136.003 273.425 138.549 273.763C141.096 274.1 143.409 275.42 144.994 277.439C146.58 279.459 147.312 282.017 147.035 284.569L147.056 284.798Z" fill="#263238"/>
<path d="M171.767 340.842C175.989 337.579 173.16 334.035 171.08 332.466C169.582 331.431 167.759 330.974 165.95 331.18C164.141 331.387 162.468 332.242 161.242 333.588C158.777 336.093 159.505 340.727 160.857 341.476C162.209 342.224 166.119 345.196 171.767 340.842Z" fill="#FCD7E0"/>
<path d="M171.361 334.835L174.938 337.09L168.407 344.811C168.407 344.811 162.167 341.507 163.602 338.036L166.348 335.365C167.001 334.725 167.852 334.324 168.762 334.228C169.672 334.131 170.588 334.346 171.361 334.835Z" fill="#B55B52"/>
<path d="M178.048 344.811L177.008 346.162C176.445 346.895 175.631 347.392 174.722 347.559C173.813 347.726 172.875 347.551 172.089 347.066L168.407 344.811L174.938 337.09L177.736 339.896C178.376 340.538 178.761 341.39 178.819 342.295C178.876 343.2 178.602 344.094 178.048 344.811Z" fill="#B55B52"/>
<path d="M135.2 248.977C137.706 254.391 141.003 263.993 138.32 269.865C137.957 270.663 137.917 271.57 138.208 272.397C138.498 273.223 139.097 273.906 139.88 274.302C142.553 275.632 147.399 276.723 155.771 275.144C166.015 273.211 166.338 270.665 165.006 268.961C164.464 268.37 163.808 267.895 163.077 267.564C162.345 267.234 161.555 267.055 160.753 267.038C157.383 264.367 153.681 258.672 155.334 254.62L135.2 248.977Z" fill="#B55B52"/>
<path opacity="0.2" d="M155.251 254.786L143.905 261.021C143.374 261.884 145.985 265.386 150.457 265.895C153.091 266.152 155.742 265.617 158.07 264.357C155.813 261.51 154.149 257.748 155.251 254.786Z" fill="black"/>
<path d="M155.355 233.753C155.012 227.871 151.133 225.73 151.133 225.73C150.576 226.64 150.203 227.651 150.037 228.705C149.871 229.758 149.915 230.835 150.166 231.872L141.274 238.99C145.111 242.368 155.698 239.634 155.355 233.753Z" fill="#263238"/>
<path d="M132.694 248.852C136.958 256.646 139.058 261.416 145.038 263.63C154.045 266.955 162.23 258.642 160.378 249.736C158.714 241.724 152.058 230.334 142.698 230.833C140.633 230.925 138.625 231.545 136.867 232.634C135.109 233.722 133.659 235.242 132.656 237.049C131.653 238.855 131.129 240.889 131.136 242.955C131.143 245.022 131.679 247.052 132.694 248.852Z" fill="#B55B52"/>
<path d="M145.922 245.361C146.224 246.015 146.827 246.4 147.254 246.182C147.68 245.963 147.774 245.288 147.472 244.633C147.17 243.979 146.567 243.594 146.141 243.823C145.714 244.051 145.6 244.696 145.922 245.361Z" fill="#263238"/>
<path d="M153.306 241.9C153.608 242.555 154.211 242.939 154.637 242.721C155.064 242.503 155.157 241.827 154.856 241.173C154.554 240.518 153.951 240.133 153.525 240.352C153.098 240.57 152.994 241.245 153.306 241.9Z" fill="#263238"/>
<path d="M151.112 243.324C152.826 244.966 154.758 246.364 156.853 247.48C156.208 249.102 154.014 249.559 154.014 249.559L151.112 243.324Z" fill="#A02724"/>
<path d="M149.697 253.009C149.248 253.306 148.837 253.655 148.47 254.048C148.445 254.091 148.435 254.141 148.442 254.191C148.449 254.24 148.472 254.285 148.509 254.319C148.545 254.353 148.592 254.374 148.642 254.378C148.692 254.381 148.741 254.368 148.782 254.339C149.383 253.672 150.133 253.155 150.972 252.832C151.811 252.509 152.714 252.388 153.608 252.479C153.661 252.488 153.717 252.476 153.761 252.445C153.806 252.414 153.837 252.366 153.847 252.313C153.856 252.258 153.844 252.202 153.813 252.155C153.782 252.109 153.735 252.076 153.681 252.064C152.282 251.887 150.867 252.223 149.697 253.009Z" fill="#263238"/>
<path d="M141.991 240.538C141.927 240.589 141.88 240.658 141.856 240.736C141.832 240.814 141.832 240.897 141.856 240.975C142.02 241.481 142.063 242.019 141.979 242.544C141.896 243.07 141.69 243.568 141.378 243.999C141.307 244.087 141.272 244.198 141.282 244.311C141.292 244.423 141.345 244.527 141.43 244.602C141.516 244.672 141.626 244.706 141.737 244.696C141.847 244.686 141.95 244.634 142.022 244.55C142.431 244.014 142.703 243.387 142.816 242.722C142.928 242.058 142.877 241.376 142.667 240.736C142.652 240.683 142.626 240.634 142.591 240.591C142.557 240.549 142.514 240.513 142.466 240.487C142.417 240.461 142.364 240.445 142.31 240.439C142.255 240.434 142.2 240.439 142.147 240.455C142.088 240.466 142.033 240.495 141.991 240.538Z" fill="#263238"/>
<path d="M151.923 235.727C151.827 235.736 151.738 235.781 151.673 235.852C151.634 235.891 151.602 235.938 151.581 235.99C151.559 236.042 151.548 236.097 151.548 236.153C151.548 236.209 151.559 236.265 151.581 236.316C151.602 236.368 151.634 236.415 151.673 236.455C152.152 236.929 152.74 237.28 153.385 237.478C154.03 237.675 154.713 237.713 155.376 237.587C155.43 237.575 155.481 237.552 155.527 237.52C155.572 237.487 155.611 237.446 155.64 237.399C155.669 237.351 155.688 237.298 155.696 237.243C155.704 237.188 155.702 237.132 155.688 237.078C155.661 236.97 155.592 236.876 155.497 236.818C155.401 236.76 155.287 236.741 155.178 236.766C154.652 236.854 154.112 236.816 153.603 236.653C153.095 236.49 152.633 236.208 152.256 235.831C152.211 235.791 152.158 235.761 152.101 235.743C152.043 235.725 151.983 235.719 151.923 235.727Z" fill="#263238"/>
<path d="M137.831 246.701C138.715 250.089 142.521 250.65 143.645 252.011C144.768 253.373 139.245 254.994 139.245 254.994L135.72 252.136L137.831 246.701Z" fill="#263238"/>
<path d="M131.612 256.563C133.331 257.944 135.506 258.63 137.707 258.486C140.567 258.236 140.827 255.472 139.027 253.29C137.426 251.346 134.004 249.133 131.612 250.453C129.22 251.772 129.48 254.838 131.612 256.563Z" fill="#B55B52"/>
<path d="M137.082 251.544C139.266 249.05 136.832 241.9 135.74 240.404C137.009 239.364 141.918 233.919 139.224 230.594C136.531 227.268 129.615 230.594 129.615 230.594C129.824 231.047 130.134 231.447 130.522 231.762C130.909 232.077 131.364 232.3 131.851 232.412C128.804 233.327 124.571 235.53 124.061 239.427C126.932 239.427 127.025 238.969 127.025 238.969C127.025 238.969 123.011 245.818 124.945 249.497C125.196 249.498 125.444 249.449 125.676 249.352C125.907 249.256 126.116 249.113 126.291 248.934C126.466 248.754 126.603 248.541 126.693 248.307C126.783 248.074 126.826 247.824 126.817 247.574C126.817 247.574 128.221 252.812 137.082 251.544Z" fill="#263238"/>
<path d="M143.416 227.507C139.454 223.132 134.056 225.314 134.056 225.314C134.022 226.22 134.259 227.115 134.737 227.885C135.215 228.656 135.912 229.266 136.739 229.637L135.699 240.403C140.837 240.632 147.379 231.872 143.416 227.507Z" fill="#263238"/>
<path d="M150.342 229.492C149.24 223.704 143.509 222.768 143.509 222.768C143.002 223.519 142.731 224.404 142.731 225.309C142.731 226.215 143.002 227.1 143.509 227.85L137.009 236.496C141.284 239.354 151.445 235.28 150.342 229.492Z" fill="#263238"/>
<path d="M201.063 339.844C198.983 340.883 195.957 339.844 195.957 339.844C195.957 339.844 194.335 300.594 219.773 288.352C221.364 288.352 222.404 290.836 222.404 290.836C214.791 296.59 209.011 304.427 205.764 313.397C200.377 328.413 201.063 339.844 201.063 339.844Z" fill="#FCD7E0"/>
<path d="M372.143 107.158C370.989 113.05 369.835 123.858 373.963 127.786C366.337 129.631 359.348 133.489 353.725 138.957C349.565 131.267 355.628 127.786 355.628 127.786C362.201 126.217 362.035 121.343 360.891 116.76L372.143 107.158Z" fill="#FFC3BD"/>
<path d="M355.566 133.107C356.918 127.651 352.862 126.809 359.559 124.211C364.759 122.133 374.764 122.07 377.135 123.847C378.456 124.887 376.719 128.191 376.719 128.191L355.566 133.107Z" fill="#263238"/>
<path d="M386.495 132.878C386.714 133.398 386.828 133.689 386.984 134.073L387.4 135.113C387.671 135.83 387.889 136.547 388.118 137.253C388.565 138.687 388.96 140.121 389.314 141.556C390.019 144.45 390.513 147.392 390.791 150.358C391.413 156.416 390.988 162.536 389.532 168.45C389.335 169.188 389.147 169.936 388.898 170.674L388.731 171.225L388.638 171.505L388.492 171.942C388.211 172.742 387.815 173.499 387.317 174.186C386.527 175.273 385.535 176.197 384.395 176.909C383.533 177.451 382.621 177.907 381.67 178.27C378.656 179.332 375.502 179.945 372.31 180.089C366.606 180.402 360.886 180.077 355.254 179.122C354.53 179.001 353.874 178.622 353.408 178.056C352.941 177.49 352.694 176.774 352.713 176.041C352.732 175.308 353.016 174.606 353.511 174.065C354.006 173.524 354.681 173.179 355.41 173.095H355.524C360.726 172.591 365.898 171.817 371.02 170.778C372.207 170.525 373.38 170.213 374.535 169.842C375.541 169.549 376.517 169.159 377.447 168.679C378.217 168.294 378.664 167.712 378.3 168.013C378.19 168.144 378.102 168.291 378.04 168.45V168.512V168.398L378.092 168.19L378.186 167.754C378.331 167.192 378.425 166.611 378.539 166.029C379.315 161.29 379.368 156.462 378.695 151.708C378.38 149.261 377.929 146.832 377.343 144.434C377.052 143.239 376.719 142.044 376.366 140.88L375.804 139.155L375.513 138.324L375.263 137.627L375.149 137.326C374.598 135.834 374.652 134.186 375.299 132.734C375.946 131.281 377.136 130.138 378.614 129.549C380.092 128.96 381.742 128.97 383.212 129.578C384.682 130.187 385.857 131.345 386.485 132.806L386.495 132.878Z" fill="#FFC3BD"/>
<path d="M356.98 179.226L347.766 178.187L351.094 170.082C353.848 171.317 356.492 172.784 358.998 174.467L356.98 179.226Z" fill="#FFC3BD"/>
<path d="M344.24 173.885L346.258 170.549C346.467 170.199 346.779 169.923 347.151 169.755C347.523 169.588 347.937 169.539 348.338 169.614L351.146 170.123L347.818 178.229L344.999 176.639C344.766 176.51 344.561 176.336 344.396 176.127C344.231 175.918 344.109 175.678 344.039 175.422C343.968 175.165 343.949 174.897 343.984 174.633C344.018 174.369 344.106 174.115 344.24 173.885Z" fill="#FFC3BD"/>
<path d="M383.656 128.721C388.211 131.839 391.477 137.981 393.661 149.318C391.581 153.392 377.146 157.767 377.146 157.767C377.146 157.767 367.754 119.992 383.656 128.721Z" fill="#FCD7E0"/>
<path d="M352.799 179.621L325.946 185.035C325.113 185.168 324.259 185.029 323.51 184.64C322.761 184.251 322.157 183.632 321.786 182.874L304.106 144.153C303.932 143.836 303.836 143.481 303.828 143.118C303.82 142.756 303.899 142.397 304.059 142.071C304.219 141.746 304.456 141.464 304.748 141.249C305.041 141.035 305.381 140.894 305.739 140.838L332.592 135.424C333.426 135.292 334.28 135.431 335.029 135.82C335.777 136.209 336.382 136.828 336.752 137.586L354.432 176.306C354.607 176.624 354.702 176.979 354.711 177.342C354.719 177.704 354.639 178.063 354.479 178.388C354.319 178.714 354.083 178.996 353.79 179.21C353.498 179.425 353.158 179.566 352.799 179.621Z" fill="#263238"/>
<path d="M325.52 182.52C325.213 182.567 324.899 182.515 324.624 182.371C324.349 182.227 324.127 181.999 323.991 181.72L306.311 143C306.246 142.884 306.209 142.754 306.205 142.621C306.201 142.488 306.229 142.356 306.288 142.236C306.346 142.117 306.433 142.013 306.54 141.934C306.647 141.855 306.772 141.804 306.904 141.784L333.757 136.37C334.061 136.323 334.372 136.374 334.646 136.516C334.919 136.658 335.139 136.884 335.275 137.16L352.955 175.88C353.02 175.997 353.057 176.127 353.061 176.261C353.065 176.394 353.036 176.527 352.978 176.647C352.92 176.768 352.834 176.872 352.726 176.952C352.619 177.032 352.494 177.085 352.362 177.106L325.52 182.52Z" fill="white"/>
<path d="M318.989 152.259C318.786 152.255 318.589 152.197 318.417 152.09C318.245 151.982 318.105 151.831 318.012 151.651C317.92 151.471 317.877 151.269 317.89 151.067C317.903 150.865 317.97 150.67 318.084 150.503L324.688 141.15C324.866 140.929 325.122 140.783 325.403 140.744C325.685 140.705 325.971 140.775 326.203 140.94C326.434 141.105 326.594 141.352 326.649 141.631C326.704 141.909 326.65 142.199 326.498 142.439L319.904 151.792C319.799 151.936 319.662 152.054 319.503 152.135C319.344 152.216 319.168 152.259 318.989 152.259Z" fill="#FCD7E0"/>
<path d="M337.74 141.68C337.906 145.65 331.646 154.826 339.383 160.147C340.288 168.159 341.463 176.046 343.543 189.244H383.926C379.621 174.695 382.626 164.917 387.972 139.363C388.263 137.963 388.257 136.519 387.954 135.122C387.651 133.725 387.058 132.407 386.213 131.254C385.368 130.101 384.29 129.138 383.048 128.428C381.807 127.718 380.43 127.276 379.007 127.131C377.395 126.965 375.69 126.83 373.942 126.747C367.838 126.315 361.711 126.315 355.607 126.747C353.621 126.934 351.572 127.183 349.617 127.454C346.228 127.939 343.138 129.662 340.945 132.289C338.752 134.916 337.61 138.261 337.74 141.68Z" fill="#FCD7E0"/>
<path d="M342.472 183.799C342.339 184.891 342.597 185.996 343.2 186.916C356.373 184.634 369.81 184.284 383.084 185.877C383.322 184.91 383.253 183.893 382.887 182.967C382.887 182.967 365.81 180.099 342.472 183.799Z" fill="#263238"/>
<path d="M321.807 159.949L322.847 151.448L314.444 153.974C315.415 156.84 316.622 159.621 318.053 162.287L321.807 159.949Z" fill="#FFC3BD"/>
<path d="M318.874 147.51L315.349 149.183C314.986 149.355 314.684 149.633 314.484 149.98C314.283 150.327 314.193 150.727 314.225 151.127L314.444 153.974L322.847 151.449L321.537 148.487C321.428 148.247 321.272 148.03 321.079 147.85C320.886 147.671 320.659 147.531 320.411 147.44C320.163 147.349 319.899 147.309 319.635 147.321C319.372 147.333 319.113 147.397 318.874 147.51Z" fill="#FFC3BD"/>
<path d="M352.862 139.55C352.456 141.119 352.071 142.46 351.624 143.873C351.177 145.286 350.719 146.647 350.241 148.03C349.253 150.763 348.161 153.475 346.996 156.146C345.831 158.816 344.531 161.466 343.138 164.064C341.744 166.662 340.195 169.198 338.551 171.692L338.343 172.014C337.93 172.642 337.381 173.17 336.736 173.558C336.092 173.946 335.369 174.186 334.62 174.259C332.204 174.478 329.769 174.122 327.517 173.22C325.45 172.353 323.587 171.065 322.047 169.437C320.703 167.998 319.572 166.374 318.687 164.615C318.273 163.784 317.905 162.931 317.585 162.059C317.27 161.161 317.009 160.245 316.805 159.315C316.667 158.665 316.748 157.988 317.034 157.389C317.32 156.789 317.795 156.3 318.387 155.998C318.978 155.695 319.653 155.595 320.307 155.714C320.961 155.833 321.558 156.164 322.005 156.655L322.411 157.123C322.775 157.538 323.263 158.162 323.711 158.671C324.158 159.18 324.636 159.71 325.115 160.178C325.992 161.064 326.974 161.842 328.037 162.495C328.859 163.027 329.784 163.381 330.751 163.534C331.529 163.632 332.317 163.572 333.071 163.358L329.139 165.914C330.387 163.618 331.573 161.279 332.675 158.858C333.778 156.437 334.828 153.995 335.795 151.501C336.763 149.006 337.709 146.492 338.583 143.956L339.851 140.142C340.257 138.895 340.683 137.555 341.027 136.422V136.287C341.461 134.728 342.497 133.406 343.907 132.611C345.318 131.816 346.986 131.613 348.546 132.047C350.106 132.481 351.429 133.516 352.225 134.925C353.02 136.334 353.223 138.002 352.789 139.56L352.862 139.55Z" fill="#FFC3BD"/>
<path d="M346.237 128.306C341.224 130.634 336.263 135.248 334.246 146.159C335.577 150.513 349.18 157.757 349.18 157.757C349.18 157.757 363.366 122.424 346.237 128.306Z" fill="#FCD7E0"/>
<path d="M346.476 101.723C346.632 102.503 346.341 103.23 345.831 103.324C345.322 103.417 344.791 102.877 344.614 102.087C344.437 101.297 344.75 100.58 345.259 100.476C345.769 100.372 346.32 100.933 346.476 101.723Z" fill="#263238"/>
<path d="M345.498 100.476L343.501 100.31C343.501 100.31 344.76 101.589 345.498 100.476Z" fill="#263238"/>
<path d="M346.32 102.596C345.98 104.527 345.375 106.401 344.521 108.166C344.976 108.376 345.471 108.485 345.972 108.485C346.473 108.485 346.968 108.376 347.423 108.166L346.32 102.596Z" fill="#ED847E"/>
<path d="M346.122 107.522C345.11 107.468 344.152 107.047 343.429 106.337C342.272 105.246 341.438 103.858 341.016 102.326C340.028 98.8341 341.078 95.4671 343.345 94.8332C343.965 94.6952 344.61 94.7183 345.218 94.9003C345.826 95.0822 346.377 95.4169 346.819 95.8724C347.992 96.9896 348.831 98.4108 349.242 99.9772C350.22 103.469 349.18 106.826 346.913 107.459C346.653 107.516 346.387 107.537 346.122 107.522ZM344.125 95.1657C343.908 95.1671 343.691 95.195 343.481 95.2489C341.494 95.81 340.61 98.8861 341.515 102.097C341.895 103.569 342.68 104.905 343.782 105.953C344.156 106.355 344.626 106.654 345.149 106.822C345.672 106.989 346.229 107.019 346.767 106.909C348.764 106.347 349.648 103.282 348.743 100.06C348.354 98.5924 347.57 97.259 346.476 96.2049C345.842 95.5935 345.006 95.2349 344.125 95.1969V95.1657Z" fill="#263238"/>
<path d="M343.814 97.7845C343.752 97.7904 343.691 97.7822 343.633 97.7606C343.575 97.7389 343.523 97.7045 343.481 97.6598C343.395 97.5707 343.346 97.4514 343.346 97.3273C343.346 97.2032 343.395 97.0839 343.481 96.9947C343.979 96.4378 344.604 96.0078 345.302 95.7403C346 95.4728 346.752 95.3756 347.495 95.4567C347.619 95.4795 347.729 95.5501 347.801 95.6532C347.873 95.7563 347.901 95.8836 347.88 96.0075C347.87 96.068 347.848 96.1259 347.815 96.1777C347.782 96.2295 347.74 96.2742 347.689 96.3091C347.639 96.344 347.582 96.3684 347.522 96.3809C347.461 96.3933 347.4 96.3936 347.339 96.3816C346.757 96.3343 346.172 96.4233 345.63 96.6416C345.089 96.8599 344.606 97.2014 344.219 97.6391C344.168 97.694 344.105 97.7359 344.034 97.7612C343.964 97.7865 343.888 97.7945 343.814 97.7845Z" fill="#263238"/>
<path d="M371.966 94.0122C373.298 103.781 374.046 107.885 370.271 113.757C364.562 122.632 352.487 122.07 348.306 112.894C344.542 104.581 342.992 90.0321 351.499 84.3581C360.006 78.6841 370.625 84.2126 371.966 94.0122Z" fill="#FFC3BD"/>
<path d="M357.49 114.91C363.594 117.851 375.679 116.012 379.642 107.158C383.604 98.3041 379.506 85.8337 370.282 83.0902C361.202 80.4091 353.101 82.9863 351.926 92.2871C350.75 101.588 352.248 112.385 357.49 114.91Z" fill="#263238"/>
<path d="M341.266 102.462C341.2 102.462 341.137 102.438 341.089 102.393C341.041 102.349 341.011 102.288 341.006 102.223C341 102.155 341.02 102.088 341.063 102.036C341.106 101.983 341.167 101.95 341.234 101.942C341.359 101.942 353.714 100.725 360.079 101.37C360.113 101.374 360.147 101.384 360.177 101.401C360.207 101.418 360.233 101.44 360.255 101.468C360.276 101.495 360.292 101.526 360.301 101.559C360.31 101.592 360.312 101.627 360.308 101.661C360.305 101.695 360.296 101.728 360.28 101.758C360.265 101.788 360.243 101.814 360.217 101.836C360.19 101.857 360.16 101.873 360.128 101.882C360.095 101.892 360.061 101.894 360.027 101.89C353.714 101.255 341.411 102.441 341.307 102.462H341.266Z" fill="#263238"/>
<path d="M343.564 189.192C343.564 189.192 343.491 242.056 347.506 275.622C348.14 307.141 351.738 380.737 351.738 380.737H359.694C359.694 380.737 372.05 318.011 368.16 280.693C384.363 227.383 373.714 189.244 373.714 189.244L343.564 189.192Z" fill="#FFC3BD"/>
<path d="M351.427 374.231C349.107 376.59 346.757 383.657 339.009 386.005C333.986 387.523 335.993 389.123 343.575 389.123C352.342 389.123 354.765 385.309 357.729 385.309C360.693 385.309 362.399 383.397 360.36 377.11C353.756 376.299 351.427 374.231 351.427 374.231Z" fill="#263238"/>
<path d="M361.015 379.895C361.317 382.952 361.272 386.034 360.88 389.082H358.478L355.68 382.992L361.015 379.895Z" fill="#263238"/>
<path d="M354.12 189.192C354.12 189.192 370.646 250.858 380.006 279.602C389.844 309.739 399.059 378.513 399.079 380.789H405.964C405.964 380.789 413.078 325.046 400.608 279.571C397.239 205.788 383.968 189.244 383.968 189.244L354.12 189.192Z" fill="#FFC3BD"/>
<path d="M398.445 375.292C396.677 378.232 394.638 384.644 389.896 386.006C385.154 387.367 387.067 389.123 394.181 389.123C399.006 389.123 400.421 385.309 403.166 385.309C405.912 385.309 408.304 383.387 406.37 377.1C400.598 377.713 398.445 375.292 398.445 375.292Z" fill="#263238"/>
<path d="M407.035 380.176C407.264 383.141 407.233 386.121 406.942 389.082H402.99L400.515 382.992L407.035 380.176Z" fill="#263238"/>
<path d="M355.545 103.562C355.454 104.456 355.173 105.319 354.721 106.095C354.269 106.871 353.656 107.542 352.924 108.062C351.031 109.309 349.263 107.366 349.097 104.861C348.941 102.606 349.752 99.229 351.988 99.0107C354.224 98.7925 355.846 101.203 355.545 103.562Z" fill="#7F3E3B"/>
<path d="M381.576 109.829C376.48 107.439 363.626 111.71 354.536 118.621C352.739 115.898 351.426 112.885 350.657 109.715C350.955 113.162 351.779 116.544 353.101 119.743C352.342 120.346 351.624 120.969 350.948 121.593C349.024 116.812 346.726 104.508 347.194 94.719C346.382 93.95 344.479 94.0851 343.325 93.181C344.022 80.056 358.176 76.5539 363.542 76.6994C367.435 76.6684 371.243 77.8328 374.452 80.0352C382.221 85.6988 385.289 99.9046 381.576 109.829Z" fill="#263238"/>
<path opacity="0.2" d="M381.576 109.829C376.48 107.439 363.626 111.71 354.536 118.621C352.739 115.898 351.426 112.885 350.657 109.715C350.955 113.162 351.779 116.544 353.101 119.743C352.342 120.346 351.624 120.969 350.948 121.593C349.024 116.812 346.726 104.508 347.194 94.719C346.382 93.95 344.479 94.0851 343.325 93.181C344.022 80.056 358.176 76.5539 363.542 76.6994C367.435 76.6684 371.243 77.8328 374.452 80.0352C382.221 85.6988 385.289 99.9046 381.576 109.829Z" fill="white"/>
<g opacity="0.2">
<path d="M347.807 287.199C347.911 290.753 348.026 294.546 348.171 298.495C355.235 297.077 362.16 295.042 368.867 292.416C368.795 289.028 368.618 285.734 368.347 282.616C361.669 284.818 354.789 286.353 347.807 287.199Z" fill="black"/>
<path d="M399.974 268.265C393.427 272.124 386.619 275.524 379.6 278.438C379.725 278.812 379.839 279.187 379.964 279.55C380.671 281.712 381.368 284.081 382.044 286.606C388.358 283.521 394.487 280.072 400.4 276.277C400.296 273.526 400.154 270.856 399.974 268.265Z" fill="black"/>
</g>
<path d="M343.564 189.192C343.564 189.192 342.67 230.667 345.769 293.05C375.014 290.826 403.416 272.338 403.416 272.338C403.416 272.338 402.563 206.495 383.947 189.203C373.433 186.387 343.772 188.247 343.564 189.192Z" fill="#263238"/>
<path d="M162.791 213.665C162.697 213.662 162.604 213.637 162.521 213.592C162.433 213.54 162.362 213.463 162.317 213.37C162.273 213.278 162.257 213.174 162.271 213.073C163.249 205.996 160.743 195.23 152.963 187.093C133.391 182.417 119.007 170.227 113.443 153.631C103.792 124.533 124.956 91.2792 160.639 79.4531C196.321 67.6271 233.21 81.6147 242.871 110.629C247.551 124.72 245.211 140.205 236.278 154.223C227.344 168.242 212.94 179.07 195.718 184.807C189.38 186.913 182.812 188.25 176.155 188.787C177.445 202.587 163.249 213.437 163.103 213.551C163.012 213.618 162.904 213.658 162.791 213.665ZM186.337 76.2524C177.728 76.2782 169.178 77.6816 161.013 80.4092C125.84 92.0794 105.04 124.762 114.473 153.246C119.891 169.531 134.056 181.481 153.348 186.054C153.448 186.075 153.538 186.125 153.608 186.199C161.252 194.16 164.008 204.572 163.436 211.899C166.619 209.176 176.457 199.719 175.063 188.35C175.054 188.28 175.059 188.209 175.079 188.141C175.099 188.073 175.132 188.01 175.178 187.956C175.27 187.848 175.401 187.781 175.542 187.768C182.299 187.277 188.969 185.943 195.395 183.799C212.431 178.146 226.658 167.431 235.446 153.662C244.234 139.893 246.511 124.741 241.925 110.951C234.739 89.3567 212.16 76.2524 186.337 76.2524Z" fill="#263238"/>
<path d="M318.386 78.9441H318.313C317.835 78.8818 306.665 77.1879 302.942 68.9263C298.991 70.6903 294.843 71.9742 290.587 72.7505C278.835 74.912 267.103 73.2285 257.535 67.991C247.967 62.7534 241.675 54.5646 239.855 44.9416C236.205 25.1969 253.001 5.38985 277.295 0.910916C301.59 -3.56802 324.345 8.91272 327.995 28.7198C330.075 40.0158 325.676 51.5821 315.911 60.4776C314.059 67.5441 316.004 74.4236 318.76 78.1439C318.818 78.2211 318.853 78.3129 318.862 78.409C318.871 78.5051 318.853 78.6018 318.809 78.6881C318.766 78.7744 318.7 78.8469 318.618 78.8977C318.535 78.9484 318.441 78.9753 318.344 78.9753L318.386 78.9441ZM303.212 67.7C303.277 67.6846 303.345 67.6846 303.41 67.7C303.476 67.725 303.537 67.7639 303.587 67.8141C303.637 67.8643 303.676 67.9246 303.701 67.991C306.322 74.5379 314.215 76.9281 317.221 77.6243C315.699 74.9733 314.715 72.0483 314.326 69.0168C313.937 65.9854 314.15 62.907 314.954 59.958C314.975 59.859 315.03 59.7706 315.11 59.7086C324.678 51.0521 329.004 39.7872 326.987 28.8029C323.43 9.55702 301.247 -2.53921 277.503 1.78384C253.76 6.10689 237.339 25.3736 240.885 44.6091C242.601 53.9618 248.685 61.8389 258.003 66.9414C267.322 72.0438 278.855 73.7066 290.368 71.5866C294.715 70.7895 298.945 69.4561 302.963 67.6169C303.051 67.6244 303.137 67.6529 303.212 67.7Z" fill="#263238"/>
<path d="M183.321 172.898C182.479 172.898 181.636 172.898 180.783 172.898C171.746 172.555 162.219 170.518 150.8 166.465C146.484 164.938 141.638 162.984 138.643 159.066C137.705 157.812 136.939 156.439 136.365 154.982C134.43 150.141 133.806 144.875 134.555 139.716C134.451 138.604 134.347 137.492 134.254 136.391C134.202 135.726 134.139 135.05 134.087 134.385L133.9 132.442C133.287 126.03 132.652 119.4 135.013 113.383C137.374 107.366 142.075 103.5 145.6 101.287C150.27 98.5635 155.322 96.5529 160.587 95.3219C164.601 94.2827 168.418 93.4306 172.089 92.807C172.72 92.4489 173.377 92.1397 174.055 91.8822C177.632 90.5104 181.605 90.6559 185.006 90.9885C185.983 91.082 186.992 91.1963 188.022 91.3522C189.249 91.3522 190.455 91.3522 191.651 91.4457C194.177 91.638 196.638 92.3317 198.892 93.4862C201.145 94.6407 203.146 96.2328 204.776 98.1693C206.748 100.437 208.245 103.077 209.179 105.933C210.113 108.789 210.466 111.802 210.215 114.796C216.276 120.399 220.566 127.648 222.56 135.653C236.663 133.512 252.013 126.986 262.746 118.07C278.575 104.934 290.587 91.56 301.6 65.5697C310.461 44.6611 310.752 30.102 302.515 21.0714C297.852 15.9669 291.352 12.9213 284.443 12.6036C277.533 12.286 270.781 14.7224 265.668 19.3775C260.804 23.8109 257.902 29.9933 257.6 36.5648C257.297 43.1362 259.62 49.5586 264.056 54.4192C268.28 59.0448 274.17 61.8051 280.43 62.0935C286.69 62.3819 292.808 60.1748 297.44 55.9572C301.842 51.9397 304.468 46.3405 304.741 40.3897C305.014 34.4389 302.912 28.6232 298.896 24.2201C295.071 20.0378 289.741 17.5433 284.076 17.2841C278.412 17.025 272.876 19.0225 268.684 22.838C264.703 26.4756 262.329 31.5423 262.081 36.9269C261.834 42.3114 263.733 47.5743 267.363 51.5614C270.824 55.3516 275.65 57.6132 280.779 57.849C285.908 58.0848 290.921 56.2755 294.715 52.8188C298.321 49.5316 300.472 44.9482 300.697 40.0763C300.921 35.2044 299.2 30.443 295.911 26.8389C292.777 23.4101 288.409 21.364 283.767 21.1497C279.124 20.9353 274.586 22.5703 271.149 25.6958C267.892 28.682 265.953 32.8372 265.758 37.2498C265.563 41.6624 267.128 45.9722 270.109 49.2336C271.512 50.7728 273.205 52.0207 275.091 52.9061C276.976 53.7914 279.018 54.2967 281.1 54.3932C283.181 54.4897 285.261 54.1755 287.221 53.4685C289.18 52.7615 290.981 51.6756 292.521 50.2728C295.475 47.5778 297.237 43.8211 297.421 39.8284C297.604 35.8357 296.193 31.9336 293.499 28.9797C292.23 27.5876 290.699 26.4591 288.993 25.6586C287.287 24.8582 285.44 24.4015 283.558 24.3146C281.675 24.2278 279.794 24.5125 278.022 25.1524C276.25 25.7924 274.621 26.7751 273.229 28.0444C270.567 30.4725 268.974 33.8529 268.794 37.4497C268.615 41.0465 269.865 44.5684 272.272 47.2487C274.597 49.7854 277.833 51.2983 281.271 51.4561C284.71 51.6138 288.07 50.4036 290.618 48.0905C293.032 45.8827 294.472 42.8088 294.622 39.5421C294.772 36.2755 293.62 33.0826 291.419 30.6632C290.379 29.525 289.126 28.6025 287.73 27.9484C286.334 27.2943 284.822 26.9214 283.282 26.8509C281.742 26.7805 280.202 27.0139 278.752 27.5379C277.302 28.0618 275.97 28.866 274.831 29.9045C273.747 30.8911 272.869 32.0815 272.246 33.4076C271.623 34.7338 271.269 36.1696 271.202 37.6329C271.135 39.0963 271.358 40.5584 271.858 41.9355C272.357 43.3127 273.124 44.5779 274.113 45.6587C276.011 47.733 278.655 48.9702 281.464 49.0988C284.274 49.2274 287.02 48.2369 289.099 46.3446C291.075 44.5431 292.254 42.0314 292.377 39.3617C292.5 36.6919 291.557 34.0827 289.755 32.1076C288.04 30.2403 285.657 29.1267 283.123 29.0099C280.59 28.893 278.114 29.7825 276.235 31.4841C275.344 32.2881 274.62 33.2599 274.106 34.3439C273.592 35.4278 273.297 36.6025 273.238 37.8007C273.179 38.9989 273.357 40.1968 273.762 41.326C274.168 42.4551 274.792 43.4931 275.6 44.3805C277.148 46.0741 279.306 47.0845 281.599 47.1897C283.892 47.2949 286.134 46.4864 287.831 44.9417C289.439 43.4689 290.398 41.4195 290.497 39.242C290.596 37.0646 289.828 34.9364 288.361 33.3235C286.962 31.7946 285.013 30.8832 282.942 30.7896C280.871 30.6961 278.847 31.4281 277.316 32.8247C276.596 33.4807 276.012 34.2722 275.598 35.1539C275.184 36.0356 274.948 36.9902 274.904 37.9631C274.859 38.936 275.007 39.9081 275.339 40.8238C275.671 41.7395 276.18 42.5809 276.838 43.2998C277.461 43.9843 278.213 44.5395 279.052 44.9335C279.89 45.3275 280.797 45.5527 281.723 45.5961C282.648 45.6395 283.572 45.5004 284.444 45.1866C285.315 44.8728 286.116 44.3906 286.801 43.7674C288.113 42.5682 288.895 40.8985 288.977 39.124C289.059 37.3496 288.433 35.615 287.238 34.3003C286.102 33.0511 284.516 32.3036 282.828 32.2219C281.993 32.1814 281.158 32.3076 280.373 32.5931C279.587 32.8786 278.866 33.3176 278.252 33.8847C278.177 33.954 278.079 33.9926 277.977 33.9926C277.874 33.9926 277.776 33.954 277.701 33.8847C277.629 33.8109 277.589 33.7121 277.589 33.6093C277.589 33.5064 277.629 33.4076 277.701 33.3339C278.396 32.6933 279.212 32.1979 280.102 31.8767C280.991 31.5555 281.936 31.4149 282.88 31.4633C283.815 31.4944 284.735 31.7117 285.585 32.1025C286.435 32.4933 287.199 33.0497 287.831 33.7392C288.493 34.4637 289.006 35.3116 289.341 36.2344C289.676 37.1572 289.825 38.1368 289.781 39.1173C289.736 40.0978 289.499 41.0599 289.082 41.9487C288.665 42.8376 288.078 43.6356 287.352 44.2974C285.815 45.6946 283.785 46.4255 281.709 46.3301C279.633 46.2346 277.679 45.3205 276.276 43.7882C274.812 42.1791 274.047 40.0553 274.148 37.8829C274.25 35.7105 275.209 33.6671 276.817 32.2012C278.504 30.6692 280.73 29.8679 283.007 29.9731C285.284 30.0783 287.426 31.0813 288.964 32.7623C290.57 34.5295 291.409 36.8605 291.298 39.2446C291.186 41.6287 290.134 43.8716 288.371 45.4821C286.52 47.1635 284.077 48.0431 281.578 47.9281C279.079 47.8132 276.728 46.7131 275.039 44.869C273.275 42.9294 272.352 40.3704 272.473 37.7524C272.594 35.1345 273.748 32.6712 275.683 30.9022C277.719 29.0601 280.401 28.0972 283.144 28.2238C285.888 28.3503 288.47 29.556 290.327 31.5776C291.289 32.6307 292.034 33.863 292.52 35.2041C293.005 36.5452 293.221 37.9688 293.156 39.3934C293.09 40.818 292.744 42.2157 292.137 43.5066C291.53 44.7974 290.675 45.956 289.619 46.9162C287.385 48.9445 284.44 50.0083 281.424 49.876C278.409 49.7436 275.568 48.4257 273.52 46.2095C271.39 43.8716 270.275 40.7842 270.421 37.6255C270.567 34.4669 271.963 31.4954 274.3 29.3642C275.512 28.2531 276.932 27.3925 278.478 26.8316C280.024 26.2708 281.666 26.0208 283.309 26.0962C284.952 26.1715 286.564 26.5706 288.052 27.2706C289.54 27.9705 290.875 28.9575 291.98 30.1747C294.323 32.7442 295.549 36.1379 295.39 39.6103C295.23 43.0827 293.697 46.3496 291.127 48.6932C288.43 51.1476 284.868 52.4321 281.224 52.2645C277.579 52.0969 274.15 50.4911 271.69 47.7995C269.116 44.9742 267.769 41.2438 267.944 37.4271C268.119 33.6104 269.803 30.0192 272.626 27.4416C274.093 26.1028 275.81 25.0659 277.678 24.3904C279.546 23.7148 281.53 23.4138 283.514 23.5045C285.499 23.5952 287.447 24.0759 289.246 24.9191C291.044 25.7623 292.659 26.9514 293.998 28.4185C295.402 29.9569 296.489 31.7566 297.196 33.7148C297.904 35.6731 298.218 37.7514 298.121 39.8311C298.025 41.9109 297.519 43.9512 296.633 45.8355C295.747 47.7198 294.498 49.4113 292.958 50.8132C289.703 53.7888 285.398 55.3509 280.991 55.156C276.583 54.9611 272.433 53.0252 269.454 49.774C266.339 46.3543 264.708 41.8394 264.921 37.22C265.133 32.6007 267.171 28.2543 270.587 25.1346C272.362 23.5152 274.439 22.2612 276.7 21.4442C278.96 20.6273 281.359 20.2634 283.76 20.3734C286.161 20.4834 288.517 21.0652 290.693 22.0854C292.869 23.1057 294.823 24.5444 296.442 26.3193C298.143 28.1794 299.46 30.3563 300.319 32.7254C301.177 35.0946 301.56 37.6097 301.445 40.1268C301.33 42.6438 300.72 45.1136 299.649 47.3948C298.578 49.676 297.068 51.724 295.204 53.4215C291.256 57.0194 286.04 58.9036 280.703 58.66C275.365 58.4164 270.343 56.065 266.739 52.1225C262.981 47.978 261.017 42.5149 261.279 36.9279C261.54 31.3409 264.004 26.0845 268.133 22.308C272.481 18.3539 278.222 16.2852 284.094 16.556C289.967 16.8268 295.493 19.415 299.458 23.7525C303.611 28.3081 305.784 34.3249 305.499 40.4807C305.214 46.6364 302.495 52.4273 297.939 56.5807C293.158 60.9363 286.841 63.2158 280.377 62.9176C273.914 62.6194 267.833 59.7681 263.474 54.9907C258.901 49.9777 256.508 43.3557 256.82 36.5801C257.132 29.8045 260.124 23.4301 265.138 18.8579C267.744 16.4814 270.793 14.6414 274.111 13.4429C277.429 12.2444 280.95 11.711 284.475 11.8731C287.999 12.0353 291.457 12.8898 294.65 14.3878C297.844 15.8858 300.711 17.9981 303.087 20.6037C311.553 29.8734 311.293 44.7027 302.307 65.9231C291.2 92.0173 279.147 105.444 263.235 118.673C252.419 127.662 236.954 134.261 222.675 136.412C223.039 138.03 223.31 139.667 223.486 141.317C224.016 145.404 223.575 149.559 222.196 153.444C220.303 158.276 216.237 162.631 210.444 166.05C202.852 170.549 193.503 172.898 183.321 172.898ZM163.28 169.437C169.006 170.925 174.873 171.807 180.783 172.066C191.807 172.482 201.927 170.165 210.07 165.374C214.001 163.057 219.18 159.056 221.51 153.164C222.844 149.395 223.268 145.364 222.747 141.4C222.58 139.76 222.313 138.133 221.947 136.526C218.992 136.958 216.01 137.18 213.023 137.191C212.407 140.053 211.594 142.869 210.59 145.619C210.361 146.305 210.111 146.98 209.862 147.697C209.317 150.65 208.092 153.436 206.284 155.834C203.445 159.453 199.831 162.389 195.707 164.428C185.756 169.652 174.346 171.414 163.28 169.437ZM135.315 139.675C135.574 143.628 136.451 147.517 137.915 151.199C141.326 159.014 149.24 165.083 159.619 167.827C170.209 170.579 181.411 169.772 191.495 165.53L190.383 165.831C184.777 167.286 178.88 167.421 173.347 167.359C165.62 167.276 157.487 166.735 150.384 163.389C147.379 161.976 143.541 159.44 142.303 155.377C141.503 152.727 141.95 149.9 142.428 147.458C142.761 145.782 143.135 144.14 143.551 142.533C142.251 135.04 143.468 126.56 147.181 118.132C146.668 118.453 146.172 118.8 145.694 119.171C143.483 120.988 141.64 123.21 140.265 125.718C137.712 129.997 136.039 134.742 135.346 139.675H135.315ZM135.023 143.582C134.942 147.364 135.632 151.122 137.051 154.629C137.603 156.023 138.333 157.34 139.225 158.547C142.095 162.288 146.817 164.189 151.029 165.686L153.338 166.486C145.735 163.192 140.005 157.933 137.197 151.511C136.147 148.971 135.427 146.306 135.055 143.582H135.023ZM144.383 142.543C144.916 145.587 145.931 148.526 147.389 151.251C152.204 160.116 162.261 166.07 173.004 166.413C182.967 166.725 193.409 162.256 200.907 154.514C202.429 152.974 203.776 151.27 204.922 149.433C205.234 148.913 205.525 148.383 205.795 147.843C204.254 150.168 202.193 152.103 199.774 153.496C197.355 154.888 194.646 155.699 191.859 155.865C191.033 155.893 190.206 155.858 189.384 155.762C183.028 158.323 176.117 159.196 169.323 158.297C159.016 157.112 151.216 152.218 148.429 145.214C146.755 140.995 147.035 136.391 147.774 132.536C146.401 135.791 145.268 139.143 144.383 142.564V142.543ZM208.967 141.649C208.21 144.517 207.074 147.271 205.587 149.838C204.398 151.719 203.003 153.462 201.427 155.034C195.975 160.698 188.983 164.643 181.314 166.382C184.303 166.211 187.269 165.762 190.175 165.042C194.335 164.002 200.263 161.591 204.319 156.52C206.382 153.759 207.99 150.686 209.082 147.417C209.343 145.913 209.371 144.378 209.165 142.865C209.144 142.491 209.04 142.086 208.967 141.67V141.649ZM143.947 144.278C143.69 145.373 143.451 146.475 143.229 147.583C142.761 149.932 142.324 152.654 143.083 155.128C144.238 158.921 147.888 161.363 150.748 162.662C155.724 164.835 161.058 166.072 166.483 166.309C162.353 165.355 158.465 163.557 155.065 161.028C151.664 158.5 148.824 155.294 146.723 151.615C145.477 149.31 144.543 146.85 143.947 144.299V144.278ZM149.427 128.898V128.992C148.283 133.211 147.015 139.384 149.188 144.923C151.861 151.657 159.432 156.354 169.437 157.528C175.673 158.339 182.012 157.652 187.928 155.523C186.657 155.253 185.419 154.845 184.236 154.307C183.056 154.121 181.901 153.8 180.794 153.351C177.477 151.933 174.817 149.316 173.347 146.024C172.869 146.228 172.365 146.367 171.85 146.44C171.504 146.476 171.156 146.476 170.81 146.44C168.663 147.016 166.431 147.21 164.216 147.011C158.299 146.409 151.83 141.597 151.736 134.853C151.663 131.268 153.411 127.464 156.936 123.546C160.994 119.031 166.011 115.48 171.621 113.154C167.65 113.114 163.682 113.424 159.765 114.079C155.561 118.453 152.072 123.461 149.427 128.919V128.898ZM190.871 155.086C191.194 155.086 191.506 155.086 191.828 155.086C195.204 154.89 198.447 153.7 201.147 151.666C203.847 149.632 205.884 146.844 207.002 143.655C207.543 142.003 207.959 139.644 206.908 137.721C205.429 142.707 202.492 147.136 198.474 150.441C197.565 151.157 196.594 151.79 195.572 152.332C194.31 153.258 192.979 154.085 191.589 154.805L190.871 155.086ZM186.992 154.504C187.739 154.713 188.5 154.866 189.27 154.961C189.935 154.681 190.58 154.369 191.215 154.047L191.62 153.829C190.114 154.259 188.559 154.493 186.992 154.525V154.504ZM184.413 153.548C188.108 154.052 191.866 153.367 195.146 151.594C199.975 148.129 203.446 143.091 204.963 137.347C205.054 136.973 205.137 136.588 205.213 136.193C204.08 135.761 202.987 135.229 201.947 134.603C200.078 134.406 198.191 134.448 196.331 134.728H196.04C193.107 135.04 189.904 135.31 186.587 135.362C185.089 137.37 183.342 139.179 181.387 140.745C179.634 142.209 177.726 143.477 175.698 144.528C175.698 144.601 175.76 144.684 175.802 144.767C177.464 148.677 180.538 151.819 184.413 153.569V153.548ZM174.013 145.671C175.401 148.798 177.925 151.283 181.075 152.623L181.532 152.81C178.677 150.923 176.442 148.238 175.105 145.089L175.043 144.933C174.718 145.215 174.37 145.469 174.003 145.692L174.013 145.671ZM173.576 113.269C167.375 115.499 161.828 119.239 157.435 124.149C154.055 127.911 152.381 131.538 152.443 134.926C152.558 141.234 158.683 145.754 164.258 146.357C165.83 146.508 167.415 146.441 168.969 146.159C167.472 145.568 166.196 144.525 165.319 143.177C164.064 141.024 163.351 138.599 163.239 136.11C162.864 131.954 162.979 124.274 167.971 119.317C171.192 116.319 175.457 114.697 179.858 114.796C182.343 114.796 185.765 115.326 187.845 117.81C188.366 118.438 188.793 119.138 189.114 119.888C189.668 121.123 190.019 122.439 190.154 123.785C193.047 122.635 196.155 122.125 199.264 122.289C198.271 120.816 197.041 119.517 195.624 118.444C193.932 117.353 192.074 116.543 190.123 116.043C184.741 114.434 179.179 113.509 173.566 113.29L173.576 113.269ZM179.868 115.513C175.657 115.403 171.57 116.944 168.48 119.805C163.717 124.534 163.623 131.964 163.987 135.975C164.086 138.338 164.757 140.642 165.943 142.688C166.461 143.504 167.152 144.197 167.965 144.719C168.779 145.241 169.696 145.58 170.654 145.712C171.382 145.515 172.12 145.276 172.859 144.995C172.501 143.989 172.27 142.942 172.172 141.878C171.084 141.785 170.035 141.426 169.117 140.834C168.2 140.241 167.442 139.433 166.91 138.48C166.534 137.698 166.291 136.858 166.192 135.996C165.952 134.215 166.117 132.403 166.674 130.694C167.231 128.985 168.166 127.423 169.41 126.125C170.654 124.827 172.175 123.826 173.86 123.196C175.544 122.566 177.349 122.324 179.14 122.486C179.369 122.299 179.619 122.133 179.858 121.956C182.031 120.46 184.018 119.951 185.692 120.46C186.515 120.746 187.255 121.229 187.848 121.867C188.441 122.504 188.868 123.277 189.093 124.118L189.353 124.024C189.259 122.696 188.942 121.393 188.417 120.169C188.126 119.476 187.738 118.829 187.263 118.247C185.266 115.867 181.771 115.503 179.858 115.503L179.868 115.513ZM205.92 136.464C205.847 136.838 205.764 137.201 205.681 137.555C205.032 140.14 203.957 142.598 202.499 144.829C204.174 142.369 205.455 139.662 206.295 136.807C206.178 136.671 206.053 136.542 205.92 136.422V136.464ZM172.952 141.982C173.049 142.91 173.255 143.824 173.566 144.704C173.93 144.559 174.283 144.393 174.606 144.226H174.668C174.426 143.515 174.242 142.785 174.117 142.044C173.742 142.042 173.367 142.021 172.994 141.982H172.952ZM209.352 140.194C209.62 141.047 209.818 141.919 209.945 142.803C210.03 143.409 210.079 144.02 210.091 144.632C210.939 142.197 211.634 139.712 212.171 137.191C211.463 137.191 210.756 137.191 210.091 137.118C209.997 137.534 209.893 137.95 209.789 138.355C209.695 138.958 209.539 139.571 209.383 140.194H209.352ZM174.939 141.93C175.035 142.477 175.163 143.019 175.323 143.551C175.861 142.945 176.341 142.291 176.759 141.597C176.172 141.753 175.574 141.865 174.97 141.93H174.939ZM177.851 141.254C177.486 141.92 177.079 142.562 176.634 143.177C178.125 142.301 179.544 141.307 180.877 140.205C181.719 139.519 182.489 138.812 183.207 138.126C181.664 139.455 179.905 140.509 178.007 141.244L177.851 141.254ZM172.9 141.182C173.288 141.202 173.677 141.202 174.065 141.182V141.119C173.911 138.808 174.4 136.498 175.479 134.448L175.053 134.313C174.203 135.505 173.579 136.844 173.212 138.261C172.982 139.217 172.887 140.2 172.931 141.182H172.9ZM208.208 139.238C208.307 139.874 208.327 140.52 208.271 141.161C208.364 140.849 208.458 140.527 208.541 140.205C208.468 139.883 208.354 139.56 208.239 139.238H208.208ZM176.239 134.645C175.172 136.61 174.685 138.837 174.835 141.067V141.15C175.681 141.068 176.514 140.89 177.32 140.62L177.414 140.444C178.308 138.733 179.073 136.958 179.702 135.133C178.662 135.03 177.622 134.894 176.582 134.718L176.239 134.645ZM178.121 123.214C176.52 123.202 174.934 123.535 173.473 124.189C172.011 124.843 170.707 125.803 169.649 127.004C168.591 128.205 167.803 129.619 167.34 131.151C166.876 132.683 166.747 134.296 166.962 135.882C167.052 136.657 167.27 137.412 167.607 138.116C168.071 138.929 168.723 139.62 169.508 140.132C170.293 140.643 171.188 140.96 172.12 141.057C172.092 140.049 172.2 139.043 172.443 138.064C172.825 136.599 173.462 135.213 174.325 133.97C173.873 133.725 173.493 133.367 173.223 132.93C172.619 131.891 172.786 130.499 173.701 128.774C174.864 126.662 176.396 124.775 178.225 123.204L178.121 123.214ZM148.325 117.446C148.211 117.706 148.096 117.966 147.971 118.226C144.688 125.211 143.341 132.948 144.071 140.631C145.263 136.507 146.819 132.497 148.72 128.649C149.979 124.1 151.668 119.681 153.764 115.451C151.896 115.936 150.083 116.615 148.356 117.478L148.325 117.446ZM180.492 135.175C179.922 136.886 179.227 138.554 178.412 140.163C180.879 139.085 183.062 137.449 184.787 135.383C183.404 135.393 182 135.331 180.523 135.206L180.492 135.175ZM208.146 136.931C208.409 137.541 208.659 138.164 208.895 138.802C208.947 138.584 208.999 138.355 209.061 138.137C209.123 137.919 209.238 137.409 209.321 137.035L208.676 136.983L208.146 136.931ZM170.352 93.9086C167.281 94.4905 164.095 95.211 160.795 96.0701C155.606 97.2848 150.629 99.2673 146.027 101.952C142.584 104.103 138.008 107.865 135.741 113.612C133.474 119.358 134.067 125.999 134.701 132.317L134.888 134.261C134.951 134.936 135.003 135.601 135.065 136.277C135.065 136.432 135.065 136.588 135.065 136.744C135.965 132.718 137.499 128.859 139.61 125.313C141.042 122.724 142.951 120.429 145.236 118.548C146.027 117.937 146.869 117.395 147.753 116.927C151.195 109.652 155.667 104.685 161.065 102.233C161.585 102.004 162.126 101.786 162.687 101.578C163.551 100.539 164.445 99.4995 165.371 98.4603C166.863 96.7689 168.533 95.2429 170.352 93.9086ZM210.808 116.397C213.071 122.119 213.982 128.285 213.471 134.416C213.387 135.082 213.294 135.757 213.179 136.412C216.058 136.392 218.931 136.177 221.78 135.767C219.945 128.437 216.153 121.742 210.808 116.397ZM210.319 136.349C210.995 136.349 211.692 136.349 212.399 136.412C212.524 135.726 212.628 135.03 212.701 134.333C213.45 127.558 211.807 120.969 209.519 115.16L208.718 114.453C205.321 111.538 201.471 109.197 197.319 107.522C199.565 109.547 201.419 111.967 202.79 114.661C203.029 115.16 203.268 115.701 203.487 116.199C205.778 118.03 207.636 120.344 208.929 122.976C210.221 125.608 210.916 128.492 210.964 131.424C210.91 133.083 210.694 134.732 210.319 136.349ZM207.823 136.121C208.135 136.121 208.447 136.214 208.77 136.245L209.529 136.297C209.913 134.685 210.133 133.038 210.184 131.382C210.145 128.82 209.584 126.293 208.536 123.955C207.489 121.616 205.976 119.515 204.09 117.779C204.64 119.391 205.088 121.036 205.431 122.705C205.629 123.609 205.785 124.492 205.931 125.344C206.793 126.22 207.435 127.289 207.803 128.462C208.304 130.514 208.275 132.659 207.719 134.697C207.657 134.967 207.595 135.248 207.522 135.528C207.626 135.674 207.719 135.902 207.823 136.121ZM206.367 135.788L206.617 135.851C206.651 135.741 206.679 135.63 206.7 135.518C206.555 135.196 206.409 134.863 206.253 134.531C206.253 134.884 206.17 135.227 206.118 135.57L206.367 135.788ZM202.207 133.876C203.313 134.065 204.372 134.464 205.327 135.05C205.411 134.427 205.473 133.793 205.515 133.138C203.942 129.908 202.159 126.784 200.179 123.785L199.774 123.162H199.503C196.311 122.924 193.107 123.429 190.143 124.638C190.174 125.495 190.132 126.354 190.019 127.204C193.232 127.963 196.019 129.865 198.734 131.704C199.93 132.463 201.063 133.201 202.207 133.876ZM180.773 134.448C182.343 134.572 183.893 134.635 185.432 134.635C186.62 133.072 187.525 131.313 188.105 129.439C188.291 128.862 188.43 128.271 188.521 127.672C186.326 127.484 184.12 127.863 182.115 128.774C181.804 130.695 181.356 132.591 180.773 134.448ZM189.946 127.921C189.706 129.187 189.322 130.422 188.802 131.6C188.337 132.655 187.78 133.667 187.138 134.624C190.258 134.552 193.211 134.292 195.957 134.001H196.248C197.648 133.818 199.059 133.735 200.471 133.751C199.753 133.284 199.046 132.806 198.391 132.328C195.718 130.509 193.003 128.659 189.946 127.921ZM176.675 133.928H176.759C177.799 134.105 178.901 134.25 179.983 134.354C180.525 132.653 180.949 130.917 181.251 129.158L180.596 129.501C180.173 129.847 179.757 130.211 179.348 130.592C178.309 131.577 177.41 132.7 176.675 133.928ZM206.378 132.993C206.586 133.419 206.794 133.855 206.991 134.281C207.487 132.446 207.509 130.515 207.054 128.67C206.847 128.001 206.535 127.369 206.128 126.799C206.403 128.851 206.487 130.925 206.378 132.993ZM175.563 133.679L175.875 133.762C176.173 133.237 176.503 132.73 176.863 132.245C176.399 132.695 175.965 133.174 175.563 133.679ZM179.4 123.287C177.362 124.89 175.668 126.887 174.419 129.158C173.639 130.582 173.472 131.715 173.93 132.515C174.143 132.869 174.453 133.154 174.824 133.336C176.267 131.5 178.068 129.976 180.118 128.857H180.17C180.586 128.524 181.012 128.202 181.449 127.911C181.553 127.152 181.636 126.394 181.688 125.635C181.771 125.173 181.721 124.698 181.543 124.263C181.335 123.989 181.069 123.765 180.762 123.609C180.456 123.452 180.119 123.367 179.775 123.359L179.4 123.287ZM200.939 123.349C202.651 125.976 204.224 128.693 205.65 131.486C205.649 129.544 205.496 127.605 205.192 125.687C203.989 124.576 202.527 123.782 200.939 123.38V123.349ZM180.274 122.642C180.672 122.689 181.054 122.824 181.392 123.038C181.731 123.252 182.017 123.54 182.229 123.879C182.478 124.44 182.561 125.06 182.468 125.666C182.468 126.228 182.375 126.778 182.302 127.329C184.233 126.154 186.274 125.169 188.396 124.388C188.211 123.661 187.851 122.991 187.347 122.435C186.843 121.879 186.211 121.454 185.505 121.198C184.039 120.772 182.302 121.198 180.305 122.601L180.274 122.642ZM188.594 125.157C186.999 125.764 185.446 126.475 183.945 127.288C185.471 126.852 187.067 126.71 188.646 126.872C188.684 126.309 188.656 125.744 188.563 125.188L188.594 125.157ZM189.343 124.877C189.393 125.179 189.428 125.485 189.447 125.791C189.447 125.469 189.447 125.147 189.447 124.835L189.343 124.877ZM154.773 115.16C153.147 118.334 151.757 121.624 150.613 125.001C152.788 121.17 155.394 117.599 158.382 114.36C157.494 114.526 156.61 114.713 155.73 114.921C155.407 115.025 155.075 115.098 154.742 115.191L154.773 115.16ZM200.335 122.435C202.04 122.752 203.646 123.464 205.026 124.513C204.932 123.973 204.818 123.411 204.703 122.861C204.277 120.733 203.664 118.646 202.873 116.625C202.696 116.48 202.519 116.334 202.332 116.199C197.461 112.725 191.592 110.927 185.609 111.076C182.234 111.095 178.879 111.596 175.646 112.562C180.623 112.93 185.544 113.847 190.32 115.295C192.354 115.818 194.29 116.667 196.051 117.81C197.732 119.087 199.172 120.653 200.304 122.435H200.335ZM161.751 102.794L161.429 102.929C156.427 105.205 152.235 109.704 148.949 116.345C150.658 115.576 152.433 114.964 154.253 114.516C156.363 110.38 158.863 106.455 161.72 102.794H161.751ZM185.671 110.359C191.544 110.252 197.308 111.945 202.187 115.212L202.093 115.025C200.433 111.773 198.066 108.933 195.167 106.711C190.268 105.03 185.094 104.293 179.92 104.54C176.89 104.63 173.892 105.199 171.039 106.223C167.123 107.811 163.581 110.196 160.639 113.227C164.888 112.586 169.188 112.342 173.483 112.5C177.373 111.114 181.469 110.39 185.599 110.359H185.671ZM163.155 102.233C160.118 105.974 157.457 110.005 155.21 114.266L155.553 114.194C156.801 113.903 158.049 113.653 159.297 113.435C162.493 109.973 166.418 107.261 170.789 105.496C173.719 104.443 176.797 103.857 179.91 103.76C184.362 103.56 188.817 104.073 193.107 105.277C191.419 104.194 189.62 103.291 187.741 102.586C181.574 100.399 174.947 99.8409 168.501 100.965C166.685 101.225 164.895 101.65 163.155 102.233ZM195.52 106.036C200.376 107.704 204.884 110.247 208.822 113.539C207.896 111.357 206.898 109.299 205.92 107.408C203.279 102.212 200.127 97.0678 195.052 94.3451C192.826 93.2144 190.424 92.4661 187.949 92.1316H187.897C182.666 92.1599 177.448 92.6327 172.297 93.5449C169.894 95.0197 167.733 96.8564 165.891 98.9903C165.256 99.6865 164.632 100.404 164.019 101.121C165.432 100.72 166.871 100.411 168.324 100.196C174.904 99.0543 181.666 99.627 187.959 101.858C190.675 102.865 193.223 104.274 195.52 106.036ZM192.015 92.2563C193.193 92.6096 194.332 93.0796 195.416 93.6592C200.679 96.4858 203.913 101.765 206.617 107.054C207.574 108.925 208.562 110.951 209.477 113.103C209.553 107.792 207.664 102.641 204.173 98.6369C201.104 95.024 196.755 92.7375 192.036 92.2563H192.015ZM180.96 91.5392C179.012 91.5104 177.071 91.7695 175.199 92.3082C177.58 91.9757 179.879 91.7263 182.125 91.5704C181.74 91.5496 181.355 91.5392 180.96 91.5392Z" fill="#FCD7E0"/>
</svg>
