<svg width="152" height="35" viewBox="0 0 152 35" fill="none" xmlns="http://www.w3.org/2000/svg">
<path d="M37.933 22.1195V21.5979L38.4214 21.4241C38.9423 21.2585 39.2028 20.8446 39.2028 20.1823C39.219 19.2385 39.2272 18.2782 39.2272 17.3013C39.2272 16.3079 39.2272 15.2979 39.2272 14.2713V13.4021C39.2272 12.4418 39.2272 11.4814 39.2272 10.5211C39.2272 9.56079 39.219 8.60047 39.2028 7.64015C39.2028 6.9613 38.9504 6.53909 38.4458 6.37351L37.933 6.2245V5.70294H44.3549C46.0641 5.70294 47.5374 6.02581 48.7745 6.67154C50.0117 7.31728 50.964 8.25276 51.6314 9.478C52.2988 10.6867 52.6325 12.152 52.6325 13.874C52.6325 15.629 52.2663 17.1192 51.5337 18.3444C50.8175 19.5697 49.8001 20.5051 48.4815 21.1509C47.1792 21.7966 45.6572 22.1195 43.9154 22.1195H37.933ZM42.7433 21.3992H43.9886C45.1444 21.3992 46.0804 21.1674 46.7967 20.7038C47.5292 20.2402 48.0664 19.462 48.4083 18.3693C48.7501 17.2599 48.921 15.7698 48.921 13.8988C48.921 12.0278 48.7501 10.5459 48.4083 9.45317C48.0664 8.36039 47.5374 7.58219 46.8211 7.11859C46.1211 6.65499 45.2095 6.42319 44.0863 6.42319H42.7433C42.7271 7.56564 42.7189 8.72465 42.7189 9.90021C42.7189 11.0592 42.7189 12.2265 42.7189 13.4021V14.2465C42.7189 15.4883 42.7189 16.7053 42.7189 17.8974C42.7189 19.0729 42.7271 20.2402 42.7433 21.3992Z" fill="#1A030B"/>
<path d="M53.6699 22.1195V21.6476L54.0362 21.5234C54.3617 21.4406 54.5815 21.2999 54.6954 21.1012C54.8257 20.9025 54.8908 20.6376 54.8908 20.3065V13.0295C54.8745 12.6653 54.8094 12.3921 54.6954 12.21C54.5815 12.0113 54.3617 11.8788 54.0362 11.8126L53.6699 11.7132V11.2662L57.65 9.8257L57.943 10.0989L58.1628 12.2845V12.4583C58.4069 11.9947 58.7162 11.5642 59.0906 11.1668C59.465 10.7695 59.872 10.4466 60.3115 10.1982C60.751 9.94988 61.1906 9.8257 61.6301 9.8257C62.2487 9.8257 62.7126 9.99128 63.0219 10.3224C63.3312 10.6536 63.4858 11.0758 63.4858 11.5891C63.4858 12.152 63.3312 12.5825 63.0219 12.8805C62.7126 13.162 62.3382 13.3027 61.8987 13.3027C61.2475 13.3027 60.6859 13.0047 60.2139 12.4086L60.165 12.359C60.0022 12.1603 59.815 12.0527 59.6034 12.0361C59.4081 12.003 59.2127 12.1023 59.0174 12.3341C58.8546 12.4997 58.7 12.6984 58.5534 12.9302C58.4232 13.1454 58.3011 13.4021 58.1872 13.7001V20.2071C58.1872 20.5217 58.2523 20.7866 58.3825 21.0019C58.5128 21.2005 58.7325 21.3413 59.0418 21.4241L59.7743 21.6476V22.1195H53.6699Z" fill="#1A030B"/>
<path d="M64.9988 22.4672C64.429 22.4672 63.9407 22.2685 63.5337 21.8711C63.143 21.4737 62.9477 20.9936 62.9477 20.4306C62.9477 19.8511 63.143 19.3544 63.5337 18.9405C63.9407 18.5265 64.429 18.3196 64.9988 18.3196C65.5685 18.3196 66.0487 18.5265 66.4394 18.9405C66.8464 19.3544 67.0499 19.8511 67.0499 20.4306C67.0499 20.9936 66.8464 21.4737 66.4394 21.8711C66.0487 22.2685 65.5685 22.4672 64.9988 22.4672Z" fill="#1A030B"/>
<path d="M82.91 22.5417C81.2496 22.5417 79.7926 22.1857 78.5392 21.4737C77.2857 20.7618 76.3009 19.7601 75.5846 18.4686C74.8847 17.1606 74.5347 15.629 74.5347 13.874C74.5347 12.152 74.8765 10.6453 75.5602 9.35382C76.2602 8.06236 77.2695 7.06064 78.588 6.34868C79.9066 5.62016 81.4856 5.2559 83.3251 5.2559C84.2041 5.2559 85.018 5.35524 85.7668 5.55393C86.5319 5.75262 87.2482 6.04237 87.9156 6.42319L88.0133 9.97472H87.354L86.1331 7.46629C85.9378 7.06892 85.7506 6.77917 85.5715 6.59704C85.3924 6.41491 85.1564 6.28245 84.8634 6.19966C84.6518 6.11688 84.4483 6.0672 84.2529 6.05065C84.0576 6.01753 83.8053 6.00097 83.496 6.00097C82.4704 6.00097 81.567 6.27417 80.7856 6.82056C80.0043 7.35039 79.3938 8.19481 78.9543 9.35382C78.531 10.5128 78.3194 12.0195 78.3194 13.874C78.3194 16.6721 78.7671 18.7004 79.6624 19.9588C80.574 21.2005 81.7868 21.8214 83.3007 21.8214C83.6588 21.8214 83.9681 21.7718 84.2285 21.6724C84.5378 21.6228 84.7494 21.4986 84.8634 21.2999C84.9773 21.0846 85.0343 20.8197 85.0343 20.5051C85.0343 19.8263 85.0262 19.0895 85.0099 18.2947C85.0099 17.4834 85.0099 16.7466 85.0099 16.0844C85.0099 15.4386 84.6762 15.0412 84.0088 14.8922L82.91 14.6439V14.1223H89.6493V14.6439L89.3563 14.7184C89.047 14.8177 88.8109 14.9667 88.6481 15.1654C88.4854 15.3476 88.404 15.6042 88.404 15.9353C88.404 16.5976 88.3958 17.2765 88.3795 17.9719C88.3795 18.6507 88.3795 19.3379 88.3795 20.0333V21.1012C87.5331 21.5648 86.6703 21.9208 85.7913 22.1691C84.9285 22.4175 83.9681 22.5417 82.91 22.5417Z" fill="#1A030B"/>
<path d="M93.9563 22.4672C93.0285 22.4672 92.2389 22.2023 91.5878 21.6724C90.9529 21.126 90.6355 20.3479 90.6355 19.3379C90.6355 18.5431 91.0099 17.8146 91.7587 17.1523C92.5238 16.4734 93.7203 15.9767 95.3481 15.6621C95.6249 15.5959 95.9423 15.538 96.3004 15.4883C96.6748 15.4221 97.0411 15.3558 97.3992 15.2896V13.5263C97.3992 12.4004 97.2609 11.6222 96.9841 11.1917C96.7074 10.7612 96.2679 10.5459 95.6656 10.5459H95.5923C95.2179 10.5459 94.9168 10.6701 94.6889 10.9185C94.4772 11.1503 94.3389 11.5394 94.2738 12.0858L94.2005 12.4086C94.1517 13.0709 93.9807 13.5594 93.6877 13.874C93.3947 14.172 93.0285 14.321 92.5889 14.321C92.182 14.321 91.8401 14.1968 91.5634 13.9485C91.3029 13.6835 91.1727 13.3441 91.1727 12.9302C91.1727 12.2513 91.4006 11.6801 91.8564 11.2165C92.3122 10.7529 92.9145 10.4052 93.6633 10.1734C94.4284 9.9416 95.2505 9.8257 96.1295 9.8257C97.5783 9.8257 98.6852 10.1817 99.4503 10.8936C100.215 11.6056 100.598 12.7646 100.598 14.3707V19.9091C100.598 20.621 100.932 20.977 101.599 20.977H102.161L102.405 21.2502C102.112 21.631 101.786 21.9208 101.428 22.1195C101.07 22.3347 100.582 22.4423 99.9631 22.4423C99.2631 22.4423 98.7015 22.2768 98.2783 21.9456C97.8713 21.5979 97.6027 21.1426 97.4725 20.5797C96.9516 21.1426 96.4388 21.5979 95.9342 21.9456C95.4295 22.2933 94.7703 22.4672 93.9563 22.4672ZM95.3726 20.8777C95.6981 20.8777 96.0074 20.8032 96.3004 20.6542C96.5934 20.5051 96.9597 20.2568 97.3992 19.9091V15.9353C96.976 16.0016 96.5446 16.0844 96.1051 16.1837C95.4051 16.3493 94.8354 16.6556 94.3958 17.1026C93.9726 17.5497 93.761 18.154 93.761 18.9156C93.761 19.5779 93.9075 20.0747 94.2005 20.4058C94.5098 20.7204 94.9005 20.8777 95.3726 20.8777Z" fill="#1A030B"/>
<path d="M107.012 22.4423L103.007 22.1195V21.6476L103.251 21.5979C103.886 21.4489 104.204 21.035 104.204 20.3561V7.44146C104.204 7.11031 104.139 6.85367 104.008 6.67154C103.894 6.48941 103.675 6.35696 103.349 6.27417L103.032 6.19966V5.75262L107.207 4.68467L107.525 4.9082L107.427 8.41006V11.0178C108.583 10.2231 109.828 9.8257 111.163 9.8257C112.53 9.8257 113.662 10.339 114.557 11.3655C115.452 12.3755 115.9 13.9402 115.9 16.0595C115.9 17.4669 115.672 18.6507 115.216 19.6111C114.76 20.5548 114.15 21.2668 113.385 21.7469C112.62 22.2271 111.773 22.4672 110.845 22.4672C110.227 22.4672 109.608 22.3844 108.99 22.2188C108.387 22.0532 107.85 21.7966 107.378 21.4489L107.012 22.4423ZM109.698 21.3744C110.235 21.3744 110.707 21.2171 111.114 20.9025C111.521 20.5879 111.838 20.0498 112.066 19.2882C112.294 18.5265 112.408 17.4834 112.408 16.1589C112.408 14.8343 112.302 13.7994 112.091 13.0544C111.879 12.3093 111.57 11.7877 111.163 11.4897C110.772 11.1917 110.3 11.0427 109.747 11.0427C109.014 11.0427 108.265 11.2579 107.5 11.6884V20.7535C108.168 21.1674 108.9 21.3744 109.698 21.3744Z" fill="#1A030B"/>
<path d="M117.027 22.1195V21.6476L117.394 21.5234C117.719 21.4406 117.939 21.2999 118.053 21.1012C118.183 20.9025 118.248 20.6376 118.248 20.3065V13.0295C118.232 12.6653 118.167 12.3921 118.053 12.21C117.939 12.0113 117.719 11.8788 117.394 11.8126L117.027 11.7132V11.2662L121.007 9.8257L121.3 10.0989L121.52 12.2845V12.4583C121.764 11.9947 122.074 11.5642 122.448 11.1668C122.822 10.7695 123.229 10.4466 123.669 10.1982C124.108 9.94988 124.548 9.8257 124.987 9.8257C125.606 9.8257 126.07 9.99128 126.379 10.3224C126.689 10.6536 126.843 11.0758 126.843 11.5891C126.843 12.152 126.689 12.5825 126.379 12.8805C126.07 13.162 125.696 13.3027 125.256 13.3027C124.605 13.3027 124.043 13.0047 123.571 12.4086L123.522 12.359C123.36 12.1603 123.172 12.0527 122.961 12.0361C122.765 12.003 122.57 12.1023 122.375 12.3341C122.212 12.4997 122.057 12.6984 121.911 12.9302C121.781 13.1454 121.659 13.4021 121.545 13.7001V20.2071C121.545 20.5217 121.61 20.7866 121.74 21.0019C121.87 21.2005 122.09 21.3413 122.399 21.4241L123.132 21.6476V22.1195H117.027Z" fill="#1A030B"/>
<path d="M130.471 8.45973C129.934 8.45973 129.478 8.28588 129.104 7.93818C128.729 7.59047 128.542 7.15171 128.542 6.62187C128.542 6.07548 128.729 5.63672 129.104 5.30557C129.478 4.95787 129.934 4.78402 130.471 4.78402C131.008 4.78402 131.464 4.95787 131.838 5.30557C132.213 5.63672 132.4 6.07548 132.4 6.62187C132.4 7.15171 132.213 7.59047 131.838 7.93818C131.464 8.28588 131.008 8.45973 130.471 8.45973ZM127.663 22.1195V21.6476L128.029 21.5483C128.355 21.4489 128.575 21.2999 128.688 21.1012C128.802 20.9025 128.868 20.6376 128.884 20.3065V15.7367C128.884 15.2234 128.884 14.7515 128.884 14.321C128.884 13.874 128.876 13.4186 128.859 12.955C128.859 12.6239 128.794 12.3672 128.664 12.1851C128.55 11.9864 128.33 11.854 128.005 11.7877L127.663 11.7132V11.2662L131.936 9.8257L132.229 10.0989L132.156 13.6256V20.3313C132.156 20.6624 132.213 20.9274 132.327 21.126C132.457 21.3247 132.677 21.4737 132.986 21.5731L133.255 21.6476V22.1195H127.663Z" fill="#1A030B"/>
<path d="M140.444 9.8257C141.469 9.8257 142.348 10.0409 143.081 10.4714C143.813 10.9019 144.375 11.498 144.765 12.2596C145.172 13.0047 145.376 13.8657 145.376 14.8426C145.376 15.0578 145.368 15.2648 145.352 15.4635C145.335 15.6456 145.303 15.8194 145.254 15.985H137.904C137.92 17.6904 138.23 18.9156 138.832 19.6607C139.451 20.4058 140.346 20.7783 141.518 20.7783C142.332 20.7783 142.991 20.6459 143.496 20.381C144 20.0995 144.464 19.7104 144.888 19.2137L145.278 19.5862C144.79 20.4969 144.122 21.2088 143.276 21.7221C142.446 22.2188 141.453 22.4672 140.297 22.4672C139.141 22.4672 138.124 22.2188 137.245 21.7221C136.366 21.2254 135.674 20.5134 135.169 19.5862C134.681 18.6425 134.437 17.5166 134.437 16.2085C134.437 14.8508 134.722 13.7001 135.291 12.7563C135.877 11.8126 136.626 11.0923 137.538 10.5956C138.466 10.0823 139.434 9.8257 140.444 9.8257ZM140.321 10.5459C139.849 10.5459 139.434 10.6867 139.076 10.9682C138.734 11.2331 138.458 11.7132 138.246 12.4086C138.051 13.0875 137.937 14.0478 137.904 15.2896H142.275C142.454 13.6173 142.389 12.4086 142.08 11.6636C141.77 10.9185 141.184 10.5459 140.321 10.5459Z" fill="#1A030B"/>
<path d="M146.311 22.1195V21.6476L146.677 21.5483C147.214 21.3661 147.483 20.9522 147.483 20.3065C147.483 19.7435 147.483 19.1806 147.483 18.6176C147.499 18.0381 147.507 17.4669 147.507 16.9039V7.46629C147.507 7.11859 147.45 6.86195 147.336 6.69638C147.222 6.51425 147.003 6.38179 146.677 6.29901L146.311 6.19966V5.72778L150.584 4.68467L150.901 4.9082L150.804 8.41006V20.3065C150.82 20.6376 150.885 20.9108 150.999 21.126C151.129 21.3247 151.349 21.4655 151.658 21.5483L152 21.6476V22.1195H146.311Z" fill="#1A030B"/>
<path d="M68.3454 34.9255V30.5792H69.7494C70.0831 30.5792 70.3578 30.6351 70.5735 30.7469C70.7892 30.8586 70.9479 31.0097 71.0496 31.2001C71.1554 31.3905 71.2083 31.6058 71.2083 31.8458C71.2083 32.0818 71.1575 32.295 71.0557 32.4854C70.954 32.6758 70.7953 32.8289 70.5796 32.9448C70.3639 33.0566 70.0871 33.1125 69.7494 33.1125H68.8581V34.9255H68.3454ZM68.8581 32.6716H69.7372C70.079 32.6716 70.3212 32.5992 70.4636 32.4543C70.6101 32.3053 70.6833 32.1025 70.6833 31.8458C70.6833 31.5851 70.6101 31.3822 70.4636 31.2374C70.3212 31.0883 70.079 31.0138 69.7372 31.0138H68.8581V32.6716Z" fill="#1A030B"/>
<path d="M75.6835 35C75.3701 35 75.0975 34.9421 74.8655 34.8261C74.6335 34.7102 74.4545 34.5488 74.3283 34.3418C74.2022 34.1349 74.1391 33.8948 74.1391 33.6216H74.6763C74.6763 33.7913 74.7149 33.9486 74.7923 34.0935C74.8696 34.2342 74.9815 34.3481 75.128 34.435C75.2786 34.5178 75.4637 34.5592 75.6835 34.5592C75.9724 34.5592 76.1963 34.4888 76.355 34.3481C76.5137 34.2073 76.5931 34.0314 76.5931 33.8203C76.5931 33.6464 76.5564 33.5078 76.4832 33.4043C76.4099 33.2967 76.3102 33.2097 76.1841 33.1435C76.062 33.0773 75.9195 33.0193 75.7568 32.9697C75.598 32.92 75.4312 32.8641 75.2562 32.802C74.9266 32.6861 74.6824 32.5433 74.5237 32.3736C74.3649 32.1998 74.2856 31.9742 74.2856 31.6968C74.2815 31.465 74.3344 31.2601 74.4443 31.0821C74.5542 30.9 74.7088 30.7593 74.9082 30.6599C75.1117 30.5564 75.3518 30.5047 75.6286 30.5047C75.9012 30.5047 76.1373 30.5564 76.3367 30.6599C76.5402 30.7634 76.6968 30.9062 76.8067 31.0883C76.9207 31.2705 76.9797 31.4774 76.9837 31.7092H76.4466C76.4466 31.5892 76.416 31.4712 76.355 31.3553C76.2939 31.2353 76.2003 31.138 76.0742 31.0635C75.9521 30.989 75.7975 30.9517 75.6103 30.9517C75.3783 30.9476 75.187 31.0076 75.0364 31.1318C74.8899 31.256 74.8167 31.4278 74.8167 31.6472C74.8167 31.8334 74.8675 31.9762 74.9693 32.0756C75.0751 32.1749 75.2216 32.2577 75.4088 32.3239C75.596 32.386 75.8117 32.4585 76.0559 32.5412C76.2594 32.6158 76.4425 32.7027 76.6053 32.802C76.7681 32.9014 76.8942 33.0297 76.9837 33.187C77.0773 33.3443 77.1241 33.545 77.1241 33.7892C77.1241 33.9962 77.0712 34.1928 76.9654 34.3791C76.8596 34.5612 76.6989 34.7102 76.4832 34.8261C76.2716 34.9421 76.005 35 75.6835 35Z" fill="#1A030B"/>
<path d="M80.2931 34.9255V30.5792H80.8059V34.9255H80.2931Z" fill="#1A030B"/>
<path d="M86.0278 35C85.6086 35 85.2464 34.9069 84.9412 34.7206C84.64 34.5302 84.406 34.2673 84.2392 33.9321C84.0723 33.5926 83.9889 33.1994 83.9889 32.7524C83.9889 32.3094 84.0723 31.9203 84.2392 31.5851C84.406 31.2456 84.64 30.9807 84.9412 30.7903C85.2464 30.5999 85.6086 30.5047 86.0278 30.5047C86.5161 30.5047 86.9129 30.6247 87.2181 30.8648C87.5274 31.1008 87.7248 31.4319 87.8103 31.8583H87.2425C87.1774 31.5892 87.0431 31.374 86.8396 31.2125C86.6402 31.047 86.3696 30.9642 86.0278 30.9642C85.7225 30.9642 85.456 31.0366 85.2281 31.1815C85.0002 31.3222 84.8231 31.5271 84.697 31.7962C84.5749 32.0611 84.5139 32.3798 84.5139 32.7524C84.5139 33.1249 84.5749 33.4457 84.697 33.7147C84.8231 33.9797 85.0002 34.1846 85.2281 34.3294C85.456 34.4702 85.7225 34.5405 86.0278 34.5405C86.3696 34.5405 86.6402 34.4619 86.8396 34.3046C87.0431 34.1432 87.1774 33.93 87.2425 33.6651H87.8103C87.7248 34.0831 87.5274 34.4101 87.2181 34.6461C86.9129 34.882 86.5161 35 86.0278 35Z" fill="#1A030B"/>
<path d="M92.9302 35C92.511 35 92.1427 34.9069 91.8253 34.7206C91.5119 34.5302 91.2657 34.2653 91.0867 33.9258C90.9117 33.5864 90.8242 33.1953 90.8242 32.7524C90.8242 32.3094 90.9117 31.9203 91.0867 31.5851C91.2657 31.2456 91.5119 30.9807 91.8253 30.7903C92.1427 30.5999 92.511 30.5047 92.9302 30.5047C93.3534 30.5047 93.7218 30.5999 94.0351 30.7903C94.3525 30.9807 94.5988 31.2456 94.7737 31.5851C94.9487 31.9203 95.0362 32.3094 95.0362 32.7524C95.0362 33.1953 94.9487 33.5864 94.7737 33.9258C94.5988 34.2653 94.3525 34.5302 94.0351 34.7206C93.7218 34.9069 93.3534 35 92.9302 35ZM92.9302 34.5405C93.2436 34.5405 93.5183 34.4702 93.7543 34.3294C93.9944 34.1846 94.1796 33.9797 94.3098 33.7147C94.4441 33.4457 94.5113 33.1249 94.5113 32.7524C94.5113 32.3798 94.4441 32.0611 94.3098 31.7962C94.1796 31.5312 93.9944 31.3284 93.7543 31.1877C93.5183 31.0428 93.2436 30.9704 92.9302 30.9704C92.6168 30.9704 92.3401 31.0428 92.1 31.1877C91.864 31.3284 91.6788 31.5312 91.5445 31.7962C91.4143 32.0611 91.3492 32.3798 91.3492 32.7524C91.3492 33.1249 91.4143 33.4457 91.5445 33.7147C91.6788 33.9797 91.864 34.1846 92.1 34.3294C92.3401 34.4702 92.6168 34.5405 92.9302 34.5405ZM92.6616 30.3246V29.9335L93.9435 29.1449V29.5982L92.6616 30.3246Z" fill="#1A030B"/>
<path d="M98.2177 34.9255V30.5792H98.7305V34.5095H100.721V34.9255H98.2177Z" fill="#1A030B"/>
<path d="M105.409 35C104.989 35 104.621 34.9069 104.304 34.7206C103.99 34.5302 103.744 34.2653 103.565 33.9258C103.39 33.5864 103.303 33.1953 103.303 32.7524C103.303 32.3094 103.39 31.9203 103.565 31.5851C103.744 31.2456 103.99 30.9807 104.304 30.7903C104.621 30.5999 104.989 30.5047 105.409 30.5047C105.832 30.5047 106.2 30.5999 106.513 30.7903C106.831 30.9807 107.077 31.2456 107.252 31.5851C107.427 31.9203 107.515 32.3094 107.515 32.7524C107.515 33.1953 107.427 33.5864 107.252 33.9258C107.077 34.2653 106.831 34.5302 106.513 34.7206C106.2 34.9069 105.832 35 105.409 35ZM105.409 34.5405C105.722 34.5405 105.997 34.4702 106.233 34.3294C106.473 34.1846 106.658 33.9797 106.788 33.7147C106.922 33.4457 106.99 33.1249 106.99 32.7524C106.99 32.3798 106.922 32.0611 106.788 31.7962C106.658 31.5312 106.473 31.3284 106.233 31.1877C105.997 31.0428 105.722 30.9704 105.409 30.9704C105.095 30.9704 104.818 31.0428 104.578 31.1877C104.342 31.3284 104.157 31.5312 104.023 31.7962C103.893 32.0611 103.827 32.3798 103.827 32.7524C103.827 33.1249 103.893 33.4457 104.023 33.7147C104.157 33.9797 104.342 34.1846 104.578 34.3294C104.818 34.4702 105.095 34.5405 105.409 34.5405Z" fill="#1A030B"/>
<path d="M112.534 35C112.135 35 111.785 34.9069 111.484 34.7206C111.182 34.5302 110.948 34.2673 110.782 33.9321C110.615 33.5926 110.531 33.2015 110.531 32.7586C110.531 32.3157 110.615 31.9245 110.782 31.5851C110.952 31.2456 111.193 30.9807 111.502 30.7903C111.815 30.5999 112.184 30.5047 112.607 30.5047C113.087 30.5047 113.486 30.6227 113.803 30.8586C114.125 31.0946 114.332 31.4195 114.426 31.8334H113.834C113.777 31.5726 113.64 31.3657 113.425 31.2125C113.213 31.0594 112.94 30.9828 112.607 30.9828C112.293 30.9828 112.021 31.0552 111.789 31.2001C111.557 31.3408 111.376 31.5437 111.245 31.8086C111.119 32.0735 111.056 32.3902 111.056 32.7586C111.056 33.127 111.119 33.4436 111.245 33.7085C111.372 33.9734 111.547 34.1783 111.77 34.3232C111.994 34.464 112.255 34.5343 112.552 34.5343C113.008 34.5343 113.352 34.3998 113.583 34.1307C113.815 33.8575 113.948 33.485 113.98 33.0131H112.747V32.6033H114.505V34.9255H114.035L113.992 34.2115C113.838 34.464 113.649 34.6585 113.425 34.7951C113.201 34.9317 112.904 35 112.534 35Z" fill="#1A030B"/>
<path d="M119.699 35C119.28 35 118.912 34.9069 118.594 34.7206C118.281 34.5302 118.035 34.2653 117.856 33.9258C117.681 33.5864 117.593 33.1953 117.593 32.7524C117.593 32.3094 117.681 31.9203 117.856 31.5851C118.035 31.2456 118.281 30.9807 118.594 30.7903C118.912 30.5999 119.28 30.5047 119.699 30.5047C120.122 30.5047 120.491 30.5999 120.804 30.7903C121.121 30.9807 121.368 31.2456 121.543 31.5851C121.718 31.9203 121.805 32.3094 121.805 32.7524C121.805 33.1953 121.718 33.5864 121.543 33.9258C121.368 34.2653 121.121 34.5302 120.804 34.7206C120.491 34.9069 120.122 35 119.699 35ZM119.699 34.5405C120.012 34.5405 120.287 34.4702 120.523 34.3294C120.763 34.1846 120.949 33.9797 121.079 33.7147C121.213 33.4457 121.28 33.1249 121.28 32.7524C121.28 32.3798 121.213 32.0611 121.079 31.7962C120.949 31.5312 120.763 31.3284 120.523 31.1877C120.287 31.0428 120.012 30.9704 119.699 30.9704C119.386 30.9704 119.109 31.0428 118.869 31.1877C118.633 31.3284 118.448 31.5312 118.313 31.7962C118.183 32.0611 118.118 32.3798 118.118 32.7524C118.118 33.1249 118.183 33.4457 118.313 33.7147C118.448 33.9797 118.633 34.1846 118.869 34.3294C119.109 34.4702 119.386 34.5405 119.699 34.5405Z" fill="#1A030B"/>
<path d="M15.601 34.9255H7.57242C7.15818 34.9254 6.74896 34.8336 6.37336 34.6565C5.99776 34.4794 5.66483 34.2212 5.39786 33.9001C5.1309 33.5789 4.93632 33.2025 4.82775 32.7971C4.71917 32.3918 4.69921 31.9673 4.76927 31.5533L5.91189 24.8029C5.92733 24.7087 5.95088 24.616 5.98227 24.5259C5.98765 24.4713 6.00586 24.0725 5.50369 23.0709C4.8355 21.7367 3.57697 19.9644 1.76367 17.8087C0.776714 16.6333 0.197536 15.3 0.0427028 13.8412C-0.0889471 12.6058 0.0841023 11.2729 0.557711 9.88002C1.39977 7.40322 3.03422 5.1783 4.25716 3.75099C5.31961 2.50945 6.68601 1.57378 8.21866 1.03827C10.2253 0.338049 13.3029 -0.372246 16.5693 0.222185C20.4923 0.935839 23.6809 3.32028 26.0465 7.30793C26.5074 8.08612 26.7507 8.97687 26.7502 9.88464V13.7224C26.7497 14.2666 26.9094 14.7985 27.209 15.2501L28.9324 17.8528C29.1439 18.1723 29.2881 18.5326 29.356 18.9112C29.4239 19.2899 29.414 19.6786 29.3269 20.0531C29.2399 20.4277 29.0776 20.78 28.8501 21.0881C28.6227 21.3961 28.335 21.6532 28.0051 21.8434L27.6797 22.0314C27.3977 22.1944 27.1632 22.4301 26.9999 22.7146C26.8367 22.9991 26.7506 23.3223 26.7502 23.6514V26.9494C26.7502 27.0174 26.7536 27.0875 26.7598 27.1593C26.7974 27.5707 26.7892 28.6193 25.9049 29.4568C24.8699 30.4362 23.0359 30.7162 20.453 30.2922C20.2251 30.2541 19.9918 30.2667 19.7692 30.3291C19.5466 30.3916 19.34 30.5023 19.1638 30.6538C18.9876 30.8052 18.846 30.9936 18.7488 31.2061C18.6516 31.4185 18.6011 31.6499 18.6008 31.8841C18.5994 32.6903 18.2828 33.4632 17.7206 34.0332C17.1583 34.6033 16.3961 34.9242 15.601 34.9255ZM14.0568 1.33423C11.9935 1.33423 10.0965 1.80188 8.65004 2.30689C7.3377 2.76554 6.16769 3.56666 5.25778 4.62963C4.11143 5.96962 2.58297 8.04383 1.81004 10.3179C0.930719 12.9047 1.25446 15.1321 2.77175 16.9372C6.14786 20.9538 7.68916 23.7337 7.23004 24.9763C7.22431 24.9938 7.22015 25.0118 7.21762 25.0301L6.075 31.7804C6.03749 32.0016 6.04809 32.2284 6.10605 32.445C6.16401 32.6616 6.26794 32.8627 6.41056 33.0343C6.55319 33.2059 6.73106 33.3439 6.93175 33.4385C7.13244 33.5331 7.35109 33.5821 7.57242 33.5821H15.601C16.0455 33.5816 16.4717 33.4023 16.786 33.0836C17.1003 32.7648 17.2771 32.3327 17.2777 31.882C17.2779 31.4532 17.3701 31.0296 17.5478 30.6405C17.7255 30.2514 17.9845 29.9062 18.3069 29.6286C18.6292 29.3511 19.0072 29.148 19.4147 29.0333C19.8221 28.9186 20.2493 28.8951 20.6666 28.9644C23.3543 29.406 24.5076 28.9409 25.0024 28.4728C25.4578 28.0408 25.4619 27.4951 25.4424 27.2806C25.4325 27.1698 25.4271 27.0581 25.4271 26.9489V23.651C25.4275 23.0845 25.5757 22.5281 25.8565 22.0384C26.1374 21.5486 26.541 21.1429 27.0264 20.8623L27.3522 20.6747C27.5237 20.5757 27.6731 20.442 27.7913 20.2819C27.9095 20.1217 27.9939 19.9386 28.0391 19.7439C28.0843 19.5492 28.0895 19.3471 28.0542 19.1503C28.0189 18.9535 27.944 18.7661 27.8341 18.6L26.1106 15.9973C25.6644 15.3245 25.4264 14.532 25.4271 13.7212V9.88296C25.427 9.21911 25.2487 8.56782 24.9113 7.99891C21.8142 2.7779 17.6817 1.33423 14.0568 1.33423Z" fill="#1A030B"/>
<path d="M11.5434 11.5286H11.5356C10.8843 11.521 10.412 10.8279 10.412 9.88043C10.412 8.93295 10.8843 8.23987 11.5356 8.23273H11.5434C11.6973 8.23279 11.8463 8.28717 11.965 8.38652C12.0836 8.48588 12.1644 8.62401 12.1936 8.77721C12.2227 8.9304 12.1983 9.08911 12.1246 9.22608C12.051 9.36304 11.9325 9.46972 11.7897 9.52781C11.7191 9.75758 11.7191 10.0037 11.7897 10.2335C11.9325 10.2916 12.051 10.3982 12.1246 10.5352C12.1983 10.6722 12.2227 10.8309 12.1936 10.9841C12.1644 11.1373 12.0836 11.2754 11.965 11.3748C11.8463 11.4741 11.6973 11.5285 11.5434 11.5286Z" fill="#1A030B"/>
<path d="M11.3086 17.1618H11.3012C10.65 17.1547 10.1772 16.4616 10.1772 15.5141C10.1772 14.5666 10.65 13.8735 11.3012 13.866H11.3086C11.4627 13.8656 11.612 13.9196 11.731 14.0188C11.85 14.118 11.9312 14.2561 11.9606 14.4094C11.9901 14.5628 11.9658 14.7217 11.8922 14.8589C11.8185 14.9961 11.7 15.1029 11.557 15.1611C11.4849 15.3905 11.4841 15.6368 11.5545 15.8667C11.6975 15.9249 11.816 16.0317 11.8897 16.1689C11.9634 16.3061 11.9876 16.465 11.9582 16.6184C11.9288 16.7717 11.8476 16.9098 11.7286 17.009C11.6096 17.1082 11.4602 17.1622 11.3061 17.1618H11.3086Z" fill="#1A030B"/>
<path d="M8.99851 14.1246H8.99064C8.33943 14.117 7.86706 13.4244 7.86706 12.4765C7.86706 11.5286 8.33943 10.8363 8.99064 10.8288C9.14519 10.8269 9.2955 10.88 9.41556 10.9787C9.53561 11.0774 9.61784 11.2156 9.64801 11.3693C9.67818 11.523 9.65439 11.6826 9.58076 11.8204C9.50713 11.9582 9.38829 12.0655 9.24483 12.1238C9.17419 12.3536 9.17419 12.5998 9.24483 12.8295C9.38764 12.8876 9.50605 12.9943 9.57974 13.1313C9.65342 13.2682 9.67779 13.4269 9.64865 13.5801C9.61951 13.7333 9.53869 13.8715 9.42005 13.9708C9.30142 14.0702 9.15237 14.1245 8.99851 14.1246Z" fill="#1A030B"/>
<path d="M16.4509 11.5286C16.297 11.5285 16.148 11.4741 16.0293 11.3748C15.9107 11.2754 15.8299 11.1373 15.8007 10.9841C15.7716 10.8309 15.796 10.6722 15.8697 10.5352C15.9433 10.3982 16.0618 10.2916 16.2046 10.2335C16.2752 10.0037 16.2752 9.75758 16.2046 9.52781C16.0618 9.46972 15.9433 9.36304 15.8697 9.22608C15.796 9.08911 15.7716 8.9304 15.8007 8.77721C15.8299 8.62401 15.9107 8.48588 16.0293 8.38652C16.148 8.28717 16.297 8.23279 16.4509 8.23273H16.4588C17.11 8.23987 17.5823 8.93295 17.5823 9.88043C17.5823 10.8279 17.11 11.521 16.4588 11.5286H16.4509Z" fill="#1A030B"/>
<path d="M16.6856 17.1619C16.5317 17.1617 16.3827 17.1072 16.2642 17.0079C16.1456 16.9085 16.0649 16.7703 16.0358 16.6172C16.0067 16.464 16.0311 16.3053 16.1048 16.1684C16.1785 16.0315 16.2969 15.9248 16.4396 15.8668C16.5109 15.6371 16.5109 15.3908 16.4396 15.1611C16.2962 15.1028 16.1773 14.9954 16.1037 14.8576C16.0301 14.7198 16.0063 14.5603 16.0365 14.4065C16.0666 14.2528 16.1489 14.1147 16.2689 14.0159C16.389 13.9172 16.5393 13.8642 16.6938 13.866C17.345 13.8736 17.8178 14.5667 17.8178 15.5142C17.8178 16.4616 17.345 17.1547 16.6938 17.1619H16.6856Z" fill="#1A030B"/>
<path d="M18.9957 14.1245C18.8416 14.125 18.6923 14.0709 18.5733 13.9718C18.4543 13.8726 18.3731 13.7344 18.3437 13.5811C18.3142 13.4278 18.3385 13.2688 18.4121 13.1317C18.4858 12.9945 18.6043 12.8876 18.7473 12.8295C18.8179 12.5997 18.8179 12.3536 18.7473 12.1238C18.6039 12.0652 18.4853 11.9577 18.4118 11.8198C18.3384 11.6819 18.3149 11.5222 18.3453 11.3686C18.3757 11.2149 18.4582 11.0769 18.5784 10.9784C18.6986 10.8799 18.849 10.8271 19.0035 10.8291C19.6548 10.8367 20.1271 11.5294 20.1271 12.4768C20.1271 13.4243 19.6548 14.1174 19.0035 14.125L18.9957 14.1245Z" fill="#1A030B"/>
<path d="M8.74398 19.5119C7.88885 19.5109 7.06902 19.166 6.46435 18.5528C5.85968 17.9397 5.51955 17.1084 5.51856 16.2413C5.5177 15.7478 5.62815 15.2608 5.84148 14.8173C5.87745 14.7347 5.92948 14.6602 5.99447 14.5985C6.05946 14.5367 6.13607 14.4889 6.21972 14.4578C6.30336 14.4268 6.39232 14.4131 6.48128 14.4177C6.57024 14.4224 6.65737 14.4451 6.73745 14.4847C6.81754 14.5242 6.88894 14.5797 6.94738 14.6479C7.00581 14.7161 7.05009 14.7955 7.07756 14.8814C7.10503 14.9673 7.11513 15.058 7.10725 15.1479C7.09937 15.2379 7.07368 15.3254 7.03171 15.405C6.90665 15.6667 6.84222 15.9539 6.84334 16.2446C6.84395 16.5386 6.91075 16.8285 7.03863 17.0923C7.16651 17.3562 7.3521 17.5869 7.58126 17.767C7.81042 17.947 8.07709 18.0716 8.36095 18.1313C8.64482 18.191 8.93837 18.1842 9.21925 18.1114C9.38943 18.0669 9.5701 18.0928 9.72149 18.1833C9.87289 18.2738 9.98262 18.4216 10.0265 18.5942C10.0705 18.7668 10.045 18.95 9.95568 19.1035C9.8664 19.257 9.72063 19.3683 9.55044 19.4128C9.28678 19.48 9.01583 19.5133 8.74398 19.5119Z" fill="#1A030B"/>
<path d="M6.4351 15.7828C6.35085 15.7827 6.26738 15.7663 6.18919 15.7345C5.59659 15.4942 5.0876 15.0811 4.72661 14.5474C4.36562 14.0137 4.16884 13.3834 4.16118 12.7362C4.15351 12.0891 4.3353 11.4542 4.68354 10.9119C5.03178 10.3695 5.53084 9.94413 6.11757 9.68944C6.19762 9.65404 6.28378 9.63504 6.3711 9.63353C6.45842 9.63202 6.54518 9.64804 6.62637 9.68065C6.70756 9.71327 6.78159 9.76185 6.8442 9.8236C6.90681 9.88534 6.95676 9.95903 6.99117 10.0404C7.02559 10.1218 7.04379 10.2093 7.04473 10.2979C7.04568 10.3864 7.02934 10.4743 6.99667 10.5564C6.96399 10.6385 6.91563 10.7133 6.85435 10.7764C6.79307 10.8395 6.72009 10.8897 6.63961 10.9241C6.29406 11.0743 6.00018 11.325 5.79509 11.6445C5.59 11.9641 5.4829 12.3381 5.48733 12.7193C5.49176 13.1005 5.60752 13.4718 5.81998 13.7864C6.03244 14.1009 6.33207 14.3445 6.68101 14.4865C6.82398 14.5446 6.9425 14.6515 7.01617 14.7886C7.08983 14.9258 7.11404 15.0848 7.08464 15.2381C7.05523 15.3914 6.97404 15.5296 6.85503 15.6287C6.73603 15.7279 6.58666 15.782 6.43261 15.7815L6.4351 15.7828Z" fill="#1A030B"/>
<path d="M6.37967 10.9795C6.24108 10.9795 6.10599 10.9354 5.9934 10.8535C5.88081 10.7715 5.7964 10.6559 5.75205 10.5227C5.56974 9.97382 5.5344 9.38568 5.64963 8.81838C5.76487 8.25109 6.02654 7.72498 6.40793 7.2938C6.78932 6.86263 7.27675 6.54184 7.82043 6.36421C8.3641 6.18659 8.94453 6.15849 9.50242 6.28279C9.67398 6.32115 9.82349 6.42704 9.91805 6.57717C10.0126 6.7273 10.0445 6.90938 10.0067 7.08334C9.96884 7.25731 9.86441 7.40891 9.71635 7.5048C9.5683 7.60069 9.38874 7.63301 9.21718 7.59465C8.88835 7.52155 8.54628 7.53825 8.22589 7.64303C7.9055 7.74781 7.61827 7.93693 7.39353 8.19107C7.16878 8.44522 7.01457 8.75529 6.94664 9.08963C6.87871 9.42396 6.89949 9.77059 7.00687 10.0941C7.04027 10.1951 7.04953 10.3026 7.03388 10.4079C7.01823 10.5132 6.97812 10.6132 6.91686 10.6997C6.8556 10.7861 6.77494 10.8566 6.68154 10.9053C6.58814 10.9539 6.48467 10.9793 6.37967 10.9795Z" fill="#1A030B"/>
<path d="M11.9214 21.6599C11.1452 21.66 10.3949 21.3762 9.80841 20.8606C9.22187 20.3451 8.83837 19.6323 8.72827 18.8531C8.70568 18.6778 8.75219 18.5005 8.85771 18.3597C8.96324 18.2189 9.11926 18.126 9.29192 18.1011C9.46459 18.0762 9.63996 18.1214 9.77997 18.2268C9.91999 18.3323 10.0134 18.4894 10.0398 18.6642C10.094 19.044 10.2587 19.3988 10.5128 19.6831C10.767 19.9674 11.0991 20.1683 11.4665 20.2601C11.834 20.3519 12.2201 20.3304 12.5754 20.1983C12.9307 20.0663 13.2391 19.8297 13.461 19.5189C13.5121 19.4474 13.5766 19.3868 13.6508 19.3405C13.725 19.2943 13.8074 19.2633 13.8934 19.2493C13.9794 19.2353 14.0673 19.2387 14.152 19.2592C14.2367 19.2797 14.3166 19.3169 14.3871 19.3686C14.4577 19.4204 14.5175 19.4858 14.5631 19.561C14.6087 19.6363 14.6393 19.7199 14.6531 19.8071C14.6668 19.8943 14.6635 19.9834 14.6433 20.0693C14.6231 20.1552 14.5864 20.2362 14.5354 20.3077C14.2356 20.7261 13.8426 21.0667 13.3883 21.3016C12.934 21.5366 12.4314 21.6594 11.9214 21.6599Z" fill="#1A030B"/>
<path d="M9.36035 7.60855H9.34255C9.167 7.60382 9.00049 7.5286 8.87961 7.39942C8.75874 7.27024 8.6934 7.09767 8.69796 6.91966C8.71542 6.23591 8.94384 5.57491 9.35109 5.02966C9.75833 4.4844 10.3239 4.08234 10.9683 3.88002C11.6126 3.67771 12.3033 3.68532 12.9431 3.9018C13.583 4.11828 14.1398 4.53272 14.5353 5.08683C14.6384 5.23129 14.6808 5.41138 14.653 5.5875C14.6252 5.76361 14.5295 5.92131 14.3871 6.02591C14.2446 6.13052 14.067 6.17345 13.8933 6.14526C13.7196 6.11708 13.5641 6.02009 13.461 5.87563C13.2278 5.54981 12.8999 5.30621 12.5232 5.17901C12.1465 5.05182 11.7401 5.04741 11.3608 5.16642C10.9815 5.28543 10.6486 5.52187 10.4086 5.84256C10.1686 6.16325 10.0337 6.55209 10.0227 6.9545C10.0182 7.12957 9.94643 7.29592 9.82269 7.41809C9.69896 7.54027 9.53306 7.60861 9.36035 7.60855Z" fill="#1A030B"/>
<path d="M19.2502 19.5118C18.9788 19.5119 18.7084 19.4775 18.4454 19.4093C18.3612 19.3873 18.282 19.3486 18.2125 19.2955C18.143 19.2425 18.0844 19.176 18.0402 19.1C17.996 19.024 17.967 18.9399 17.9548 18.8525C17.9427 18.7651 17.9476 18.6762 17.9694 18.5907C17.9911 18.5053 18.0292 18.425 18.0816 18.3545C18.1339 18.284 18.1994 18.2246 18.2744 18.1798C18.3494 18.135 18.4323 18.1056 18.5185 18.0932C18.6046 18.0809 18.6924 18.0859 18.7766 18.108C19.0575 18.1808 19.3511 18.1876 19.6349 18.1279C19.9188 18.0682 20.1855 17.9435 20.4146 17.7635C20.6438 17.5834 20.8294 17.3527 20.9573 17.0889C21.0851 16.825 21.1519 16.5351 21.1525 16.2411C21.1537 15.9504 21.0892 15.6632 20.9642 15.4015C20.9205 15.3217 20.8934 15.2336 20.8845 15.1427C20.8756 15.0519 20.885 14.9601 20.9122 14.8731C20.9395 14.786 20.9839 14.7055 21.0428 14.6365C21.1018 14.5674 21.174 14.5113 21.2551 14.4715C21.3361 14.4318 21.4243 14.4092 21.5143 14.4051C21.6043 14.4011 21.6941 14.4157 21.7783 14.448C21.8625 14.4804 21.9393 14.5298 22.0041 14.5933C22.0688 14.6567 22.1201 14.7329 22.1548 14.8172C22.3673 15.2606 22.477 15.7473 22.4757 16.2403C22.4749 17.1076 22.1349 17.9391 21.5302 18.5524C20.9255 19.1657 20.1055 19.5108 19.2502 19.5118Z" fill="#1A030B"/>
<path d="M21.5591 15.7827C21.4051 15.7831 21.2557 15.7291 21.1367 15.6299C21.0177 15.5307 20.9365 15.3926 20.9071 15.2393C20.8777 15.0859 20.9019 14.927 20.9756 14.7898C21.0492 14.6526 21.1678 14.5458 21.3107 14.4876C21.6597 14.3457 21.9593 14.1021 22.1718 13.7875C22.3842 13.473 22.5 13.1017 22.5044 12.7204C22.5088 12.3392 22.4017 11.9652 22.1966 11.6457C21.9916 11.3262 21.6977 11.0755 21.3521 10.9252C21.1918 10.8543 21.0656 10.7219 21.0011 10.557C20.9367 10.392 20.9392 10.2079 21.0082 10.0449C21.0771 9.88183 21.2069 9.75305 21.3691 9.68668C21.5314 9.6203 21.7129 9.62171 21.8742 9.69061C22.4609 9.94529 22.96 10.3707 23.3082 10.9131C23.6564 11.4554 23.8382 12.0903 23.8306 12.7374C23.8229 13.3845 23.6261 14.0148 23.2651 14.5485C22.9041 15.0822 22.3951 15.4954 21.8026 15.7357C21.725 15.7667 21.6425 15.7827 21.5591 15.7827Z" fill="#1A030B"/>
<path d="M21.6146 10.9795C21.5094 10.9794 21.4057 10.954 21.3121 10.9052C21.2186 10.8565 21.1378 10.7858 21.0765 10.6992C21.0152 10.6125 20.9751 10.5122 20.9596 10.4067C20.9441 10.3012 20.9536 10.1935 20.9874 10.0924C21.0949 9.76889 21.1158 9.42221 21.0479 9.08781C20.98 8.75341 20.8258 8.44327 20.601 8.18909C20.3763 7.9349 20.089 7.74578 19.7685 7.64105C19.4481 7.53631 19.1059 7.51972 18.7771 7.59296C18.6055 7.63131 18.4259 7.59899 18.2779 7.5031C18.1298 7.40721 18.0254 7.25561 17.9876 7.08164C17.9498 6.90768 17.9816 6.7256 18.0762 6.57547C18.1708 6.42534 18.3203 6.31945 18.4918 6.28109C19.0497 6.15679 19.6301 6.18489 20.1738 6.36252C20.7175 6.54014 21.2049 6.86093 21.5863 7.2921C21.9677 7.72328 22.2294 8.24939 22.3446 8.81668C22.4598 9.38398 22.4245 9.97213 22.2422 10.521C22.1981 10.6545 22.1138 10.7705 22.0012 10.8528C21.8886 10.935 21.7534 10.9793 21.6146 10.9795Z" fill="#1A030B"/>
<path d="M16.0729 21.6599C15.5633 21.659 15.0611 21.5361 14.6072 21.3012C14.1533 21.0662 13.7606 20.7258 13.4611 20.3077C13.41 20.2362 13.3733 20.1552 13.3531 20.0693C13.3329 19.9834 13.3296 19.8943 13.3434 19.8071C13.3571 19.7198 13.3877 19.6362 13.4333 19.561C13.4789 19.4858 13.5387 19.4204 13.6093 19.3686C13.6798 19.3168 13.7597 19.2796 13.8444 19.2592C13.9291 19.2387 14.017 19.2353 14.103 19.2493C14.189 19.2632 14.2715 19.2942 14.3456 19.3405C14.4198 19.3868 14.4843 19.4474 14.5354 19.5189C14.7573 19.8297 15.0658 20.0663 15.4211 20.1983C15.7765 20.3303 16.1626 20.3518 16.53 20.2599C16.8975 20.1681 17.2296 19.9671 17.4837 19.6828C17.7378 19.3984 17.9025 19.0436 17.9566 18.6638C17.968 18.5757 17.9964 18.4908 18.0404 18.4139C18.0843 18.3371 18.1429 18.2698 18.2126 18.2161C18.2824 18.1623 18.3619 18.1231 18.4467 18.1008C18.5315 18.0784 18.6198 18.0733 18.7066 18.0858C18.7933 18.0983 18.8767 18.1281 18.952 18.1735C19.0273 18.219 19.093 18.2791 19.1452 18.3504C19.1974 18.4217 19.2352 18.5028 19.2563 18.5891C19.2774 18.6753 19.2814 18.7649 19.2681 18.8527C19.1581 19.6323 18.7743 20.3454 18.1873 20.8611C17.6004 21.3768 16.8496 21.6604 16.0729 21.6599Z" fill="#1A030B"/>
<path d="M18.6338 7.60848C18.4611 7.60854 18.2952 7.5402 18.1715 7.41803C18.0478 7.29585 17.976 7.12951 17.9714 6.95444C17.96 6.55258 17.8248 6.16441 17.585 5.8443C17.3451 5.52419 17.0125 5.28815 16.6338 5.16923C16.255 5.05032 15.8491 5.05448 15.4728 5.18114C15.0965 5.30779 14.7687 5.5506 14.5353 5.87557C14.4306 6.01538 14.276 6.10807 14.1048 6.13378C13.9335 6.15948 13.7591 6.11617 13.6189 6.01311C13.4788 5.91005 13.384 5.75544 13.3548 5.58238C13.3257 5.40932 13.3645 5.23157 13.4631 5.08719C13.8585 4.53308 14.4153 4.11864 15.0552 3.90216C15.695 3.68568 16.3857 3.67806 17.0301 3.88038C17.6744 4.0827 18.24 4.48476 18.6472 5.03001C19.0545 5.57527 19.2829 6.23626 19.3004 6.92002C19.3026 7.0082 19.2877 7.09596 19.2565 7.17831C19.2253 7.26065 19.1785 7.33595 19.1186 7.39992C19.0587 7.46389 18.9869 7.51527 18.9075 7.55113C18.828 7.58699 18.7423 7.60662 18.6554 7.6089L18.6338 7.60848Z" fill="#1A030B"/>
<path d="M13.9971 20.5852C13.8215 20.5852 13.653 20.5144 13.5288 20.3885C13.4045 20.2625 13.3348 20.0917 13.3348 19.9135V5.48093C13.3348 5.30279 13.4045 5.13195 13.5288 5.00598C13.653 4.88002 13.8215 4.80925 13.9971 4.80925C14.1728 4.80925 14.3413 4.88002 14.4655 5.00598C14.5898 5.13195 14.6595 5.30279 14.6595 5.48093V19.9135C14.6595 20.0917 14.5898 20.2625 14.4655 20.3885C14.3413 20.5144 14.1728 20.5852 13.9971 20.5852Z" fill="#1A030B"/>
</svg>
